<svg width="1120" height="80" fill="none" xmlns="http://www.w3.org/2000/svg"><path d="M1111.44 79.707c.39.39 1.02.39 1.41 0l6.37-6.364a1 1 0 10-1.42-1.414l-5.65 5.657-5.66-5.657a.995.995 0 00-1.41 0 .983.983 0 000 1.414l6.36 6.364zM10 11h551.073V9H10v2zm551.073 0H836.61V9H561.073v2zm275.537 0h137.768V9H836.61v2zm137.768 0c68.732 0 102.872 17.21 119.842 34.206 8.49 8.503 12.72 16.99 14.82 23.328 1.06 3.172 1.59 5.808 1.85 7.642.13.917.19 1.634.22 2.115.02.241.03.424.03.543 0 .06.01.104.01.132V79l1-.001c1 0 1-.001 1-.003v-.063c0-.038-.01-.093-.01-.164 0-.142-.01-.347-.03-.611a26.88 26.88 0 00-.24-2.265c-.28-1.94-.83-4.694-1.93-7.991-2.19-6.598-6.57-15.362-15.31-24.11C1078.16 26.29 1043.42 9 974.378 9v2z" fill="url(#paint0_linear_117_749)"/><rect width="20" height="20" rx="10" fill="red"/><defs><linearGradient id="paint0_linear_117_749" x1="17.474" y1="10" x2="888.927" y2="10" gradientUnits="userSpaceOnUse"><stop stop-color="red"/><stop offset="1" stop-color="#fff" stop-opacity=".13"/></linearGradient></defs></svg>