<svg width="42" height="42" fill="none" xmlns="http://www.w3.org/2000/svg"><rect width="42" height="42" rx="21" fill="red"/><g clip-path="url(#clip0_1_160)"><path fill-rule="evenodd" clip-rule="evenodd" d="M13.01 21.1c.39-4.48 4.343-8.12 8.771-8.12 2.577 0 4.443.842 5.618 2.122 1.174 1.277 1.777 3.117 1.587 5.345-.413 3.19-1.696 4.06-2.306 4.192-.33.072-.57-.02-.7-.132-.117-.1-.223-.28-.179-.597l.948-7.11a.917.917 0 00-.787-1.03l-.454-.061a.917.917 0 00-1.03.787l-.014.102a4.677 4.677 0 00-1.691-1.052c-2.828-1.014-5.817.84-6.872 3.696-1.055 2.859.029 6.193 2.868 7.212 1.796.644 3.657.131 5.047-1.06.165.323.391.611.67.85.72.62 1.706.846 2.68.634 1.995-.433 3.631-2.525 4.096-6.163a.995.995 0 00.005-.046c.242-2.762-.493-5.282-2.18-7.118-1.69-1.838-4.215-2.864-7.306-2.864-5.634 0-10.562 4.568-11.054 10.214-.497 5.718 3.732 10.412 9.449 10.412 1.764 0 2.894-.146 4.55-.846l.21-.09a.917.917 0 00.488-1.2l-.179-.423a.917.917 0 00-1.2-.487l-.212.09c-1.3.549-2.11.664-3.657.664-4.346 0-7.55-3.515-7.166-7.922zm5.041-1.065c.73-1.977 2.584-2.821 3.948-2.332 1.352.486 2.22 2.289 1.491 4.262-.73 1.977-2.584 2.82-3.947 2.332-1.352-.486-2.22-2.289-1.492-4.262z" fill="#fff"/></g><defs><clipPath id="clip0_1_160"><path fill="#fff" transform="translate(10 10)" d="M0 0h22v22H0z"/></clipPath></defs></svg>