<svg width="42" height="42" fill="none" xmlns="http://www.w3.org/2000/svg"><rect width="42" height="42" rx="21" fill="red"/><path fill-rule="evenodd" clip-rule="evenodd" d="M15.865 12.107c-.39-.869-.802-.889-1.173-.898-.301-.01-.652-.01-1.003-.01-.351 0-.913.13-1.394.648-.481.52-1.825 1.777-1.825 4.342 0 2.555 1.875 5.03 2.136 5.38.26.35 3.62 5.769 8.925 7.855 4.413 1.736 5.316 1.387 6.268 1.297.953-.09 3.09-1.257 3.53-2.475.432-1.218.432-2.256.301-2.475-.13-.22-.481-.35-1.003-.61-.521-.259-3.088-1.516-3.57-1.696-.481-.17-.832-.26-1.173.26-.351.519-1.354 1.686-1.655 2.036-.3.35-.612.389-1.133.13-.522-.26-2.206-.809-4.202-2.586-1.554-1.377-2.607-3.084-2.908-3.603-.301-.519-.03-.798.23-1.058.23-.23.522-.608.782-.908.261-.3.351-.519.522-.868.17-.35.09-.65-.04-.909-.13-.25-1.153-2.824-1.615-3.852z" fill="#fff"/></svg>