<svg width="58" height="58" viewBox="0 0 58 58" fill="none" xmlns="http://www.w3.org/2000/svg">
<path d="M12.0894 47.2337C12.2526 47.2337 27.9851 46.98 27.9851 25.6831C27.9932 23.2938 27.3471 20.9479 26.1168 18.8998C24.8864 16.8516 23.1188 15.1794 21.0057 14.0644C18.8925 12.9494 16.5144 12.4343 14.1293 12.5748C11.7441 12.7153 9.44295 13.5061 7.47531 14.8615C5.50768 16.2169 3.94867 18.0851 2.96734 20.2636C1.98601 22.442 1.61982 24.8476 1.90848 27.2194C2.19714 29.5912 3.12963 31.8386 4.60483 33.7181C6.08003 35.5976 8.04163 37.0374 10.2769 37.8812V45.4212C10.2769 45.9019 10.4679 46.363 10.8078 46.7029C11.1477 47.0428 11.6087 47.2337 12.0894 47.2337ZM5.43755 25.6831C5.43755 23.1738 6.43436 20.7673 8.20869 18.993C9.98302 17.2187 12.3895 16.2219 14.8988 16.2219C17.4081 16.2219 19.8146 17.2187 21.5889 18.993C23.3632 20.7673 24.3601 23.1738 24.3601 25.6831C24.3601 39.2769 17.3276 42.5575 13.9019 43.355V36.5581C13.915 36.1465 13.7874 35.7427 13.5403 35.4133C13.2932 35.0838 12.9413 34.8484 12.5426 34.7456C10.5247 34.23 8.73381 33.0618 7.44879 31.4227C6.16377 29.7837 5.45667 27.7658 5.43755 25.6831Z" fill="#FF0000"/>
<path d="M40.2737 47.2337C40.4368 47.2337 56.1875 46.98 56.1875 25.6831C56.1944 23.2949 55.5476 20.9504 54.3173 18.9035C53.087 16.8567 51.32 15.1855 49.2078 14.0711C47.0956 12.9567 44.7187 12.4415 42.3346 12.5814C39.9506 12.7213 37.6502 13.511 35.6829 14.8648C33.7155 16.2186 32.1561 18.085 31.1737 20.2617C30.1912 22.4385 29.8231 24.8425 30.1093 27.2135C30.3955 29.5845 31.3251 31.8319 32.7973 33.7123C34.2695 35.5927 36.2282 37.0344 38.4612 37.8812V45.4212C38.4612 45.9019 38.6522 46.3629 38.9921 46.7029C39.332 47.0428 39.793 47.2337 40.2737 47.2337ZM33.64 25.6831C33.64 23.1738 34.6368 20.7673 36.4111 18.993C38.1854 17.2187 40.5919 16.2218 43.1012 16.2218C45.6105 16.2218 48.017 17.2187 49.7913 18.993C51.5657 20.7673 52.5625 23.1738 52.5625 25.6831C52.5625 39.2768 45.5118 42.5575 42.0862 43.355V36.5581C42.0992 36.1465 41.9717 35.7427 41.7246 35.4133C41.4775 35.0838 41.1256 34.8483 40.7268 34.7456C38.7123 34.2266 36.9255 33.0569 35.644 31.4181C34.3625 29.7794 33.658 27.7633 33.64 25.6831Z" fill="#FF0000"/>
</svg>
