<svg width="71" height="56" viewBox="0 0 71 56" fill="none" xmlns="http://www.w3.org/2000/svg">
<path fill-rule="evenodd" clip-rule="evenodd" d="M19.3295 13.3509L31.1118 1.56858C33.2032 -0.522859 36.6256 -0.522859 38.7171 1.56858L50.4994 13.3509C52.5908 15.4424 52.5908 18.8647 50.4994 20.9562L48.6734 22.7822L44.708 18.8168L45.3044 18.2204C45.8911 17.6337 45.8911 16.6734 45.3044 16.0866L43.9324 14.7147L43.93 14.7171L39.9646 10.7517L39.967 10.7493L35.9813 6.76359C35.3946 6.17683 34.4343 6.17683 33.8475 6.76359L24.5245 16.0866C23.9377 16.6734 23.9377 17.6337 24.5245 18.2204L25.2619 18.9578L21.2965 22.9232L19.3295 20.9561C17.238 18.8647 17.238 15.4424 19.3295 13.3509ZM37.3654 13.3509L39.1925 11.5239L43.1578 15.4892L42.5604 16.0866C41.9737 16.6734 41.9737 17.6337 42.5604 18.2204L43.9324 19.5924L43.9359 19.5889L47.9012 23.5543L47.8978 23.5578L51.8835 27.5435C52.4702 28.1302 53.4305 28.1302 54.0173 27.5435L63.3403 18.2204C63.9271 17.6337 63.9271 16.6734 63.3403 16.0866L54.0173 6.76359C53.4305 6.17683 52.4702 6.17683 51.8835 6.76359L48.6697 9.97735L44.7043 6.01199L49.1478 1.56858C51.2392 -0.522859 54.6615 -0.522859 56.753 1.56858L68.5353 13.3509C70.6268 15.4424 70.6268 18.8647 68.5353 20.9562L56.753 32.7385C54.6615 34.8299 51.2392 34.8299 49.1477 32.7385L43.9324 27.5231L39.967 23.5578L37.3654 20.9561C35.274 18.8647 35.274 15.4424 37.3654 13.3509ZM1.56858 13.3509L13.3509 1.56858C15.4424 -0.522859 18.8647 -0.522859 20.9562 1.56858L25.2621 5.87446L21.2967 9.83982L18.2204 6.76359C17.6337 6.17683 16.6734 6.17683 16.0866 6.76359L6.76359 16.0866C6.17683 16.6734 6.17683 17.6337 6.76359 18.2204L16.0866 27.5435C16.6734 28.1302 17.6337 28.1302 18.2204 27.5435L27.5435 18.2204C28.1302 17.6337 28.1302 16.6734 27.5435 16.0866L26.8043 15.3475L30.7697 11.3821L32.7385 13.3509C34.8299 15.4424 34.8299 18.8647 32.7385 20.9562L29.9993 23.6953L30.0017 23.6976L26.0363 27.663L26.034 27.6607L20.9561 32.7385C18.8647 34.8299 15.4424 34.8299 13.3509 32.7385L1.56858 20.9561C-0.52286 18.8647 -0.52286 15.4424 1.56858 13.3509ZM43.1603 28.2953L38.717 32.7385C36.6256 34.8299 33.2032 34.8299 31.1118 32.7385L26.8084 28.4351L30.7738 24.4697L33.8475 27.5435C34.4343 28.1302 35.3946 28.1302 35.9813 27.5435L39.1949 24.3299L43.1603 28.2953Z" fill="#586B86"/>
<path d="M14.5046 45.804H10.2269V45.2019C10.2269 44.6343 9.9777 44.2259 9.47932 43.9767C9.07784 43.7829 8.47566 43.686 7.67274 43.686C6.5514 43.686 5.82459 43.9005 5.49233 44.3297C5.21547 44.6897 5.07705 45.4649 5.07705 46.6554V49.085C5.07705 50.3863 5.19469 51.2239 5.43006 51.5977C5.76228 52.1237 6.50987 52.3867 7.67274 52.3867C8.62793 52.3867 9.26474 52.2898 9.58316 52.096C10.0123 51.833 10.2269 51.2792 10.2269 50.4348V49.9779H14.5046V50.4348C14.5046 52.6082 14.0581 54.0791 13.1652 54.8475C12.2723 55.6158 10.5938 55.9999 8.12955 55.9999C6.38524 55.9999 5.12547 55.91 4.35024 55.73C3.18737 55.4531 2.32214 54.9132 1.75455 54.1103C1.11774 53.1966 0.799316 51.833 0.799316 50.0195V45.991C0.799316 43.596 1.44997 41.9694 2.75131 41.111C3.78955 40.4189 5.58233 40.0728 8.12955 40.0728C10.3169 40.0728 11.8951 40.4258 12.8641 41.1318C13.9577 41.9209 14.5046 43.2776 14.5046 45.2019V45.804ZM23.5791 55.9999C21.198 55.9999 19.4676 55.64 18.3877 54.9201C17.0449 54.0341 16.3735 52.4629 16.3735 50.2064V45.804C16.3735 43.5891 17.0449 42.0386 18.3877 41.1526C19.4814 40.4327 21.2119 40.0728 23.5791 40.0728C25.9603 40.0728 27.6907 40.4258 28.7705 41.1318C30.1134 42.004 30.7848 43.5614 30.7848 45.804V50.2064C30.7848 52.4352 30.1134 53.9995 28.7705 54.8994C27.663 55.6331 25.9326 55.9999 23.5791 55.9999ZM23.5791 52.3867C24.7143 52.3867 25.4688 52.2414 25.8426 51.9507C26.2856 51.6046 26.5071 50.8709 26.5071 49.7495V46.2401C26.5071 45.1465 26.2925 44.4335 25.8633 44.1013C25.5034 43.8244 24.742 43.686 23.5791 43.686C22.4163 43.686 21.6618 43.8175 21.3157 44.0805C20.8727 44.4128 20.6512 45.1327 20.6512 46.2401V49.7495C20.6512 50.857 20.8658 51.5838 21.2949 51.9299C21.6687 52.2345 22.4301 52.3867 23.5791 52.3867ZM37.2221 46.074H39.6724V45.804C39.6724 43.5891 40.3439 42.0386 41.6867 41.1526C42.7803 40.4327 44.5108 40.0728 46.8781 40.0728C49.2592 40.0728 50.9897 40.4258 52.0695 41.1318C53.4123 42.004 54.0837 43.5614 54.0837 45.804V50.2064C54.0837 52.4352 53.4054 53.9995 52.0487 54.8994C50.9412 55.6331 49.2108 55.9999 46.8573 55.9999C44.4901 55.9999 42.7665 55.64 41.6867 54.9201C40.3439 54.0203 39.6724 52.449 39.6724 50.2064V49.6872H37.2221V55.7923H33.069V40.2181H37.2221V46.074ZM46.8781 52.3867C48.0133 52.3867 48.7678 52.2414 49.1416 51.9507C49.5845 51.6046 49.806 50.8709 49.806 49.7495V46.2401C49.806 45.1465 49.5915 44.4335 49.1623 44.1013C48.8024 43.8244 48.041 43.686 46.8781 43.686C45.7429 43.686 44.9884 43.8313 44.6147 44.1221C44.1716 44.4681 43.9502 45.1742 43.9502 46.2401V49.7495C43.9502 50.8432 44.1544 51.5561 44.5627 51.8884C44.9711 52.2206 45.7429 52.3867 46.8781 52.3867ZM61.1233 49.3342V46.4478H63.096C63.6359 46.4478 64.0097 46.4063 64.2173 46.3232C64.6742 46.1432 64.9026 45.6864 64.9026 44.9527C64.9026 44.4404 64.7641 44.0805 64.4873 43.8728C64.1273 43.6098 63.449 43.4783 62.4523 43.4783C61.5801 43.4783 60.971 43.5856 60.6249 43.8002C60.2788 44.0148 60.1057 44.4404 60.1057 45.0772H56.1395V44.4335C56.1395 42.8 56.6933 41.644 57.8008 40.9657C58.7698 40.3704 60.3411 40.0728 62.5145 40.0728C64.7018 40.0728 66.3008 40.3497 67.3114 40.9034C68.4742 41.5402 69.0557 42.6408 69.0557 44.2051C69.0557 45.3126 68.9103 46.1155 68.6196 46.6139C68.2597 47.2507 67.5883 47.6453 66.6054 47.7976V47.9637C67.5744 48.0467 68.2666 48.3652 68.6819 48.9189C69.0972 49.4727 69.3049 50.2479 69.3049 51.2447C69.3049 53.1135 68.8896 54.3595 68.059 54.9824C67.1591 55.6608 65.3248 55.9999 62.5561 55.9999C60.1749 55.9999 58.5276 55.6954 57.6139 55.0863C56.5064 54.3387 55.9526 52.9128 55.9526 50.8085H59.9396C59.9396 51.5838 60.1092 52.0753 60.4484 52.2829C60.7876 52.4906 61.4901 52.5944 62.5561 52.5944C63.5528 52.5944 64.2346 52.4802 64.6015 52.2518C64.9683 52.0233 65.1518 51.5838 65.1518 50.9332C65.1518 50.3517 65.0168 49.9399 64.7469 49.6976C64.4769 49.4553 64.0028 49.3342 63.3244 49.3342H61.1233Z" fill="#F00E0E"/>
</svg>
