<svg width="58" height="58" fill="none" xmlns="http://www.w3.org/2000/svg"><path d="M12.09 47.234c.163 0 15.895-.254 15.895-21.55A13.087 13.087 0 1010.277 37.88v7.54a1.813 1.813 0 001.812 1.813zm-6.652-21.55a9.461 9.461 0 1118.922 0c0 13.593-7.032 16.873-10.458 17.671v-6.797a1.812 1.812 0 00-1.36-1.812 9.443 9.443 0 01-7.104-9.063z" fill="red"/><path d="M40.274 47.234c.163 0 15.913-.254 15.913-21.55A13.087 13.087 0 1038.462 37.88v7.54a1.813 1.813 0 001.813 1.813zm-6.634-21.55a9.461 9.461 0 1118.922 0c0 13.593-7.05 16.873-10.476 17.671v-6.797a1.812 1.812 0 00-1.36-1.812 9.443 9.443 0 01-7.086-9.063z" fill="red"/></svg>