<svg width="24" height="24" fill="none" xmlns="http://www.w3.org/2000/svg"><rect width="24" height="24" rx="12" fill="red"/><path fill-rule="evenodd" clip-rule="evenodd" d="M6.008 12.075c.292-3.36 3.257-6.09 6.578-6.09 1.933 0 3.332.632 4.213 1.591.881.958 1.333 2.338 1.19 4.009-.31 2.393-1.272 3.045-1.73 3.144-.247.054-.426-.014-.524-.098-.087-.076-.168-.21-.134-.449l.711-5.333a.688.688 0 00-.59-.772l-.341-.045a.688.688 0 00-.773.59l-.01.076a3.51 3.51 0 00-1.268-.788c-2.121-.761-4.363.63-5.154 2.771-.792 2.145.021 4.645 2.15 5.41 1.348.483 2.744.098 3.786-.796.123.242.293.459.502.639.54.464 1.28.633 2.01.475 1.497-.325 2.724-1.894 3.073-4.623l.004-.034c.181-2.072-.37-3.962-1.636-5.339-1.267-1.379-3.161-2.147-5.479-2.147-4.226 0-7.922 3.425-8.29 7.66-.374 4.289 2.799 7.808 7.086 7.808 1.323 0 2.17-.109 3.412-.634l.158-.067a.687.687 0 00.366-.9l-.134-.317a.687.687 0 00-.901-.366l-.158.067c-.976.413-1.582.499-2.743.499-3.26 0-5.662-2.637-5.374-5.941zm3.78-.799c.548-1.482 1.938-2.115 2.961-1.748 1.014.363 1.665 1.716 1.119 3.196-.548 1.482-1.938 2.115-2.961 1.748-1.014-.363-1.665-1.716-1.119-3.196z" fill="#fff"/></svg>