<svg width="24" height="24" fill="none" xmlns="http://www.w3.org/2000/svg"><rect width="24" height="24" rx="12" fill="url(#paint0_linear_2_235)"/><path fill-rule="evenodd" clip-rule="evenodd" d="M5.432 11.873C8.93 10.35 11.263 9.345 12.43 8.86c3.333-1.386 4.025-1.627 4.477-1.635.099-.002.32.023.465.14a.505.505 0 01.17.325c.016.093.036.306.02.472-.18 1.898-.962 6.502-1.36 8.627-.167.9-.499 1.201-.82 1.23-.696.065-1.225-.46-1.9-.902-1.056-.692-1.653-1.123-2.678-1.8-1.185-.78-.417-1.209.258-1.91.177-.184 3.247-2.976 3.307-3.23.007-.032.014-.15-.056-.212s-.174-.041-.248-.024c-.106.024-1.794 1.14-5.062 3.346-.48.328-.913.489-1.302.48-.428-.01-1.252-.242-1.865-.441-.751-.245-1.349-.374-1.297-.789.027-.216.325-.437.893-.663z" fill="#fff"/><defs><linearGradient id="paint0_linear_2_235" x1="12" y1="0" x2="12" y2="23.822" gradientUnits="userSpaceOnUse"><stop stop-color="#2AABEE"/><stop offset="1" stop-color="#229ED9"/></linearGradient></defs></svg>