<svg width="24" height="24" fill="none" xmlns="http://www.w3.org/2000/svg"><g clip-path="url(#clip0_2_230)"><path d="M0 24l1.696-6.16a11.778 11.778 0 01-1.593-5.948C.103 5.332 5.467 0 12.052 0c3.197 0 6.2 1.238 8.452 3.485A11.763 11.763 0 0124 11.897c0 6.56-5.364 11.892-11.954 11.892h-.006a12 12 0 01-5.713-1.449L0 24z" fill="#35BD49"/><path fill-rule="evenodd" clip-rule="evenodd" d="M9.066 6.918c-.224-.496-.459-.507-.67-.513-.173-.006-.373-.006-.574-.006-.2 0-.521.074-.796.37-.275.297-1.043 1.016-1.043 2.482 0 1.46 1.071 2.874 1.22 3.074.15.2 2.07 3.297 5.1 4.489 2.522.992 3.038.792 3.582.741.545-.051 1.765-.719 2.018-1.414.246-.696.246-1.29.172-1.415-.075-.125-.276-.2-.574-.348-.298-.148-1.765-.867-2.04-.97-.275-.096-.475-.148-.67.149-.2.296-.774.964-.946 1.163-.172.2-.35.223-.647.075-.298-.149-1.261-.462-2.402-1.478-.888-.787-1.49-1.762-1.661-2.059-.172-.296-.018-.456.131-.604.132-.131.298-.348.447-.52.15-.17.201-.296.298-.495.098-.2.052-.371-.022-.52-.075-.142-.66-1.613-.923-2.2z" fill="#fff"/></g><defs><clipPath id="clip0_2_230"><path fill="#fff" d="M0 0h24v24H0z"/></clipPath></defs></svg>