<svg width="52" height="60" viewBox="0 0 52 60" fill="none" xmlns="http://www.w3.org/2000/svg">
<path fill-rule="evenodd" clip-rule="evenodd" d="M49.4858 9.90286C49.4858 9.27225 49.2039 8.67981 48.7155 8.27533C48.2271 7.87085 47.5838 7.70209 46.9577 7.81356C41.0839 8.62889 34.2097 7.03011 28.3295 2.93117C26.8341 1.85149 24.8052 1.85465 23.312 2.94069C17.4404 7.0683 10.5769 8.72761 4.69882 7.88043C4.07917 7.76577 3.43801 7.92823 2.95175 8.32315C2.4655 8.72126 2.18364 9.31359 2.18364 9.93464C2.15137 17.1803 2.15137 37.5412 2.15137 44.9429C2.15137 46.6086 3.13678 48.1215 4.673 48.8094C9.4882 50.9687 19.8738 55.6282 24.0371 57.4977C25.1688 58.0041 26.4684 58.0041 27.6001 57.4977C31.7634 55.6282 42.149 50.9687 46.9642 48.8094C48.5004 48.1215 49.4858 46.6086 49.4858 44.9429C49.4858 37.5285 49.4858 17.1134 49.4858 9.90286Z" fill="#26437D"/>
<path fill-rule="evenodd" clip-rule="evenodd" d="M51.6376 44.9435V9.90129C51.6376 8.64433 51.0738 7.45314 50.097 6.6463C49.1331 5.85008 47.8659 5.51037 46.6266 5.7142C41.2477 6.45309 34.9629 4.95411 29.5776 1.19807C27.3335 -0.404986 24.2976 -0.39864 22.06 1.21291C16.7004 4.97744 10.4545 6.54229 5.0863 5.79066C3.81257 5.56984 2.5453 5.89896 1.57925 6.68881C0.600289 7.48927 0.0322722 8.6804 0.0322722 9.93525C-1.31316e-06 17.1713 0 37.5397 0 44.9435C0 47.4426 1.48028 49.708 3.78461 50.7421C8.59766 52.9014 18.9833 57.5598 23.1487 59.4283C24.8441 60.1906 26.7934 60.1906 28.4889 59.4283C32.6543 57.5598 43.0399 52.9014 47.853 50.7421C50.1573 49.708 51.6376 47.4426 51.6376 44.9435ZM47.3323 9.90129L47.3344 9.90343V44.9435C47.3344 45.7758 46.8417 46.5316 46.0736 46.8777C41.2606 49.035 30.8728 53.6956 26.7095 55.5619C26.1437 55.8167 25.4939 55.8167 24.928 55.5619C20.7648 53.6956 10.377 49.035 5.56394 46.8777C4.79584 46.5316 4.30313 45.7758 4.30313 44.9435C4.30313 37.5524 4.30313 17.2393 4.3354 9.97348L4.34185 9.97561C10.7535 10.8992 18.2001 9.13905 24.5623 4.66748L24.5752 4.65899C25.3239 4.11543 26.3244 4.11327 27.0624 4.64408L27.0753 4.65257C33.4504 9.10079 40.8991 10.7973 47.257 9.91399L47.3323 9.90129Z" fill="#26437D"/>
<path d="M22.4626 36.7515L15.6916 30.0696C14.8525 29.2415 14.8525 27.8954 15.6916 27.0673C16.5307 26.2392 17.8948 26.2392 18.7339 27.0673L23.9837 32.2459L35.1439 21.2347C35.983 20.4045 37.3449 20.4045 38.1862 21.2347C39.0253 22.0628 39.0253 23.4089 38.1862 24.237L25.5049 36.7515C24.6636 37.5796 23.3017 37.5796 22.4626 36.7515Z" fill="#34F36A"/>
</svg>
