<svg width="54" height="60" viewBox="0 0 54 60" fill="none" xmlns="http://www.w3.org/2000/svg">
<path d="M49.5 0H4.5C3.30701 0.00158748 2.16334 0.476203 1.31977 1.31977C0.476203 2.16334 0.00158748 3.30701 0 4.5V55.5C0.00158748 56.693 0.476203 57.8367 1.31977 58.6802C2.16334 59.5238 3.30701 59.9984 4.5 60H49.5C50.693 59.9984 51.8367 59.5238 52.6802 58.6802C53.5238 57.8367 53.9984 56.693 54 55.5V4.5C53.9984 3.30701 53.5238 2.16334 52.6802 1.31977C51.8367 0.476203 50.693 0.00158748 49.5 0Z" fill="#26437D"/>
<path d="M48 21H6V6H48V21Z" fill="white"/>
<path d="M9 27H15C15.7956 27 16.5587 27.3161 17.1213 27.8787C17.6839 28.4413 18 29.2043 18 30V36C18 36.7957 17.6839 37.5587 17.1213 38.1213C16.5587 38.6839 15.7956 39 15 39H9C8.20435 39 7.44129 38.6839 6.87868 38.1213C6.31607 37.5587 6 36.7957 6 36V30C6 29.2043 6.31607 28.4413 6.87868 27.8787C7.44129 27.3161 8.20435 27 9 27Z" fill="white"/>
<path d="M24 27H30C30.7957 27 31.5587 27.3161 32.1213 27.8787C32.6839 28.4413 33 29.2043 33 30V36C33 36.7957 32.6839 37.5587 32.1213 38.1213C31.5587 38.6839 30.7957 39 30 39H24C23.2043 39 22.4413 38.6839 21.8787 38.1213C21.3161 37.5587 21 36.7957 21 36V30C21 29.2043 21.3161 28.4413 21.8787 27.8787C22.4413 27.3161 23.2043 27 24 27Z" fill="white"/>
<path d="M24 42H30C30.7957 42 31.5587 42.3161 32.1213 42.8787C32.6839 43.4413 33 44.2043 33 45V51C33 51.7956 32.6839 52.5587 32.1213 53.1213C31.5587 53.6839 30.7957 54 30 54H24C23.2043 54 22.4413 53.6839 21.8787 53.1213C21.3161 52.5587 21 51.7956 21 51V45C21 44.2043 21.3161 43.4413 21.8787 42.8787C22.4413 42.3161 23.2043 42 24 42Z" fill="white"/>
<path d="M9 42H15C15.7956 42 16.5587 42.3161 17.1213 42.8787C17.6839 43.4413 18 44.2043 18 45V51C18 51.7956 17.6839 52.5587 17.1213 53.1213C16.5587 53.6839 15.7956 54 15 54H9C8.20435 54 7.44129 53.6839 6.87868 53.1213C6.31607 52.5587 6 51.7956 6 51V45C6 44.2043 6.31607 43.4413 6.87868 42.8787C7.44129 42.3161 8.20435 42 9 42Z" fill="white"/>
<path d="M39 27H45C45.7957 27 46.5587 27.3161 47.1213 27.8787C47.6839 28.4413 48 29.2043 48 30V51C48 51.7956 47.6839 52.5587 47.1213 53.1213C46.5587 53.6839 45.7957 54 45 54H39C38.2043 54 37.4413 53.6839 36.8787 53.1213C36.3161 52.5587 36 51.7956 36 51V30C36 29.2043 36.3161 28.4413 36.8787 27.8787C37.4413 27.3161 38.2043 27 39 27Z" fill="white"/>
</svg>
