<svg width="60" height="60" viewBox="0 0 60 60" fill="none" xmlns="http://www.w3.org/2000/svg">
<path fill-rule="evenodd" clip-rule="evenodd" d="M6.15902 44.401C3.61208 40.1963 2.14587 35.2673 2.14587 29.9996C2.14587 14.6266 14.6266 2.14587 29.9996 2.14587C45.3726 2.14587 57.8533 14.6266 57.8533 29.9996C57.8533 45.3726 45.3726 57.8533 29.9996 57.8533C25.9352 57.8533 22.0735 56.9798 18.5907 55.4133L2.14587 57.8533L6.15902 44.401Z" fill="#26437D"/>
<path fill-rule="evenodd" clip-rule="evenodd" d="M3.83662 44.6792L0.0901056 57.2405C-0.12018 57.9422 0.0450507 58.704 0.525703 59.2576C1.00636 59.8133 1.73593 60.0837 2.4612 59.9764L18.297 57.6268C21.8912 59.1524 25.848 60 30 60C46.5568 60 60 46.5568 60 30C60 13.4432 46.5568 0 30 0C13.4433 0 0 13.4432 0 30C0 35.3301 1.39474 40.3383 3.83662 44.6792ZM8.21617 45.014C8.38783 44.4346 8.30845 43.808 7.99517 43.2887C5.64555 39.4092 4.29154 34.8602 4.29154 30C4.29154 15.81 15.8122 4.29154 30 4.29154C44.19 4.29154 55.7085 15.81 55.7085 30C55.7085 44.1878 44.19 55.7085 30 55.7085C26.2492 55.7085 22.6851 54.9038 19.4729 53.4576C19.0974 53.288 18.6832 53.2301 18.2755 53.2902L5.16706 55.2364L8.21617 45.014Z" fill="#26437D"/>
<path d="M21.3764 27.8952H23.5221V23.6037H19.2306C18.0461 23.6037 17.0848 22.6424 17.0848 21.4579C17.0848 20.2734 18.0461 19.3121 19.2306 19.3121H23.5221C25.8932 19.3121 27.8137 21.2326 27.8137 23.6037V27.8952C27.8137 30.2663 25.8932 32.1868 23.5221 32.1868H21.3764V36.4783H25.6679C26.8524 36.4783 27.8137 37.4396 27.8137 38.6241C27.8137 39.8085 26.8524 40.7698 25.6679 40.7698H21.3764C19.0053 40.7698 17.0848 38.8494 17.0848 36.4783V32.1868C17.0848 29.8157 19.0053 27.8952 21.3764 27.8952Z" fill="#34F36A"/>
<path d="M38.5425 21.4579C38.5425 18.6148 42.8341 18.6148 42.8341 21.4579V38.6241C42.8341 39.8085 41.8728 40.7698 40.6883 40.7698C39.5038 40.7698 38.5425 39.8085 38.5425 38.6241V32.1868H34.251C31.8799 32.1868 29.9595 30.2663 29.9595 27.8952V21.4579C29.9595 20.2734 30.9208 19.3121 32.1052 19.3121C33.2897 19.3121 34.251 20.2734 34.251 21.4579V27.8952H38.5425V21.4579Z" fill="#34F36A"/>
</svg>
