<svg width="70" height="52" viewBox="0 0 70 52" fill="none" xmlns="http://www.w3.org/2000/svg">
<path fill-rule="evenodd" clip-rule="evenodd" d="M12.2794 40.1795V23.5992L31.779 31.6315C32.8092 32.0736 33.8394 31.9999 34.8695 31.6315L54.8842 23.3782V40.2532C54.8842 40.548 54.8107 40.769 54.7371 41.0638C54.7371 41.0638 50.9107 50.2014 33.7658 51.5278C33.6186 51.5278 33.545 51.5278 33.3979 51.5278C17.8717 50.275 13.3096 42.685 12.5737 41.2112C12.353 40.9164 12.2794 40.6216 12.2794 40.1795ZM1.24187 13.0616L32.5884 0.165803C33.1035 -0.0552676 33.6186 -0.0552676 34.1337 0.165803L65.4803 13.0616C66.7312 13.5774 67.0991 15.1986 66.2897 16.2302V35.6844L69.6745 41.0638C70.5575 42.3902 69.5274 44.1588 67.9821 44.1588H60.6238C58.9313 44.1588 58.0483 42.2428 58.9313 40.9164L62.2426 35.6844V18.1462L34.1337 29.7155C33.6186 29.9366 33.1035 29.9366 32.5884 29.7155L1.24187 16.8198C-0.450546 16.1565 -0.376962 13.7248 1.24187 13.0616Z" fill="#26437D"/>
</svg>
