<svg width="64" height="60" viewBox="0 0 64 60" fill="none" xmlns="http://www.w3.org/2000/svg">
<g clip-path="url(#clip0_1_519)">
<path d="M32.0001 33.8386C36.4157 33.8386 46.7975 28.8566 46.7975 16.9191C46.7975 15.2542 46.7541 13.6458 46.6078 12.1261C46.3675 9.13469 45.7139 6.4836 44.0866 4.45178C41.9998 1.68778 38.3487 0 32.0001 0C25.6511 0 21.9998 1.68795 19.9131 4.45247C18.2869 6.48308 17.6332 9.13229 17.3927 12.1216C17.246 13.6428 17.2026 15.2526 17.2026 16.9193C17.2026 28.8566 27.5845 33.8386 32.0001 33.8386ZM36.8301 6.19841C36.3991 7.21955 36.1833 7.73021 35.7521 8.75118C32.9683 8.01385 31.0315 8.01385 28.2478 8.75118C27.8166 7.73021 27.6009 7.21955 27.1697 6.19841C30.6508 5.21039 33.3492 5.21056 36.8301 6.19841ZM19.4041 14.3303C19.5741 14.6793 20.2984 16.0243 21.42 16.1504C22.7085 16.2954 24.8476 11.8718 31.9999 11.8609C39.1522 11.8718 41.2913 16.2954 42.5799 16.1504C43.7013 16.0243 44.4257 14.6792 44.5958 14.3303C44.6305 15.1873 44.6434 16.0545 44.6434 16.9193C44.6434 22.7543 41.895 26.3697 39.5895 28.3751C36.6844 30.9021 33.459 31.8193 31.9999 31.8193C30.5408 31.8193 27.3154 30.9021 24.4103 28.3751C22.1047 26.3697 19.3565 22.7543 19.3565 16.9193C19.3565 16.0545 19.3693 15.1871 19.4041 14.3303Z" fill="#26437D"/>
<path d="M59.4716 51.1905C58.7161 46.7866 57.1611 41.1139 54.0417 39.0981C51.9115 37.7212 44.4796 33.9987 41.306 32.4091L41.2511 32.3816C40.8883 32.1999 40.4452 32.2363 40.1218 32.4744C38.4593 33.6981 36.6381 34.5227 34.709 34.9255C34.3684 34.9967 34.0883 35.2237 33.9646 35.5296L32.0003 40.3841L30.0358 35.5296C29.9119 35.2237 29.6322 34.9967 29.2914 34.9255C27.3623 34.5227 25.5411 33.6981 23.8786 32.4744C23.5549 32.2363 23.1121 32.1997 22.7493 32.3816C19.6133 33.9525 12.0905 37.7509 9.96808 39.0921C6.37719 41.36 4.80697 49.5681 4.52858 51.1905C4.50112 51.3514 4.51705 51.516 4.57507 51.6696C4.70355 52.0097 7.99922 60 32.0003 60C56.0014 60 59.297 52.0097 59.4255 51.6696C59.4832 51.516 59.4993 51.3513 59.4716 51.1905ZM46.7918 47.5888L44.4755 52.381C44.4378 52.4586 44.3555 52.5071 44.2665 52.5071C44.255 52.5071 44.2436 52.5064 44.2321 52.5047C44.1305 52.4903 44.0516 52.4145 44.0386 52.3189L43.6122 49.1499H42.5467C42.4854 49.1499 42.4269 49.1269 42.3835 49.0859C42.3405 49.0454 42.3165 48.99 42.3172 48.9325L42.3687 44.1405C42.3699 44.0224 42.4722 43.9273 42.5982 43.9273H46.2097C46.2826 43.9273 46.3512 43.9599 46.3944 44.0149C46.4376 44.0696 46.4506 44.1405 46.4292 44.2058L45.4198 47.2845H46.5826C46.6607 47.2845 46.7334 47.3218 46.7757 47.3832C46.8181 47.4448 46.824 47.5222 46.7918 47.5888Z" fill="#26437D"/>
</g>
<defs>
<clipPath id="clip0_1_519">
<rect width="64" height="60" fill="white"/>
</clipPath>
</defs>
</svg>
