<svg width="60" height="60" viewBox="0 0 60 60" fill="none" xmlns="http://www.w3.org/2000/svg">
<path d="M0.705112 51.4754L3.41763 52.0916C3.47513 52.2376 3.53706 52.3822 3.60342 52.5251L2.11711 54.8846C1.89239 55.2425 1.94459 55.7087 2.24362 56.0078L3.99269 57.7568C4.2926 58.0559 4.75884 58.1081 5.11627 57.8829L7.51825 56.37C7.64299 56.4249 7.76862 56.4767 7.89513 56.5249L8.52416 59.2949C8.61794 59.7072 8.98509 60 9.40798 60H11.8816C12.3045 60 12.6717 59.7072 12.7654 59.2949L13.3945 56.5249C13.521 56.4767 13.6475 56.4249 13.7714 56.37L16.1742 57.8829C16.5317 58.1081 16.9979 58.0559 17.2978 57.7568L19.0469 56.0078C19.3459 55.7087 19.3981 55.2425 19.1734 54.8846L17.6871 52.5251C17.7534 52.3822 17.8154 52.2376 17.8729 52.0916L20.5845 51.4754C20.9968 51.3816 21.2896 51.0149 21.2896 50.592V50.2611H38.4582V50.592C38.4582 51.0149 38.7511 51.3816 39.1634 51.4754L41.875 52.0916C41.9325 52.2376 41.9944 52.3822 42.0608 52.5251L40.5745 54.8846C40.3498 55.2425 40.402 55.7087 40.701 56.0078L42.4501 57.7568C42.75 58.0559 43.2162 58.1081 43.5736 57.8829L45.9765 56.37C46.1004 56.4249 46.2269 56.4767 46.3534 56.5249L46.9824 59.2949C47.0762 59.7072 47.4433 60 47.8662 60H50.3399C50.7628 60 51.1299 59.7072 51.2237 59.2949L51.8527 56.5249C51.9792 56.4767 52.1049 56.4249 52.2296 56.37L54.6316 57.8829C54.989 58.1081 55.4553 58.0559 55.7552 57.7568L57.5042 56.0078C57.8033 55.7087 57.8555 55.2425 57.6308 54.8846L56.1444 52.5251C56.2108 52.3822 56.2727 52.2376 56.3302 52.0916L59.0427 51.4754C59.455 51.3816 59.7479 51.0149 59.7479 50.592V48.1184C59.7479 47.6955 59.455 47.3288 59.0427 47.235L56.3922 46.6325C56.3285 46.4578 56.2603 46.2861 56.186 46.1189L57.6299 43.8267C57.8555 43.4683 57.8033 43.0021 57.5042 42.7031L55.7552 40.9536C55.457 40.6545 54.989 40.6023 54.6316 40.8275L52.38 42.2457C52.1942 42.1594 52.0049 42.0802 51.812 42.0081L51.2237 39.4155C51.1299 39.0032 50.7628 38.7104 50.3399 38.7104H49.6217L40.4997 23.1604L40.9602 22.6998C41.2592 22.4008 41.3114 21.9346 41.0858 21.5767L38.9997 18.2639C39.1377 17.9781 39.2625 17.6875 39.3713 17.3942L43.1764 16.5299C43.5887 16.4361 43.8815 16.0694 43.8815 15.6465V12.3244C43.8815 11.9015 43.5887 11.5348 43.1764 11.441L39.4491 10.5939C39.335 10.2582 39.2041 9.93085 39.0581 9.61456L41.0858 6.39378C41.3114 6.03592 41.2592 5.56968 40.9602 5.27065L38.6113 2.92175C38.3114 2.62272 37.8451 2.57052 37.4877 2.79568L34.3187 4.79114C33.9781 4.62569 33.6277 4.47883 33.2694 4.35232L32.4414 0.705112C32.3476 0.292838 31.9804 0 31.5575 0H28.2355C27.8126 0 27.4454 0.292838 27.3516 0.705112L26.5227 4.35232C26.1643 4.47883 25.814 4.62569 25.4743 4.79114L22.3053 2.79568C21.9487 2.57052 21.4816 2.62272 21.1817 2.92175L18.8328 5.27065C18.5337 5.56968 18.4815 6.03592 18.7063 6.39378L20.7349 9.61456C20.5889 9.92996 20.458 10.2573 20.343 10.5939L16.6157 11.441C16.2034 11.5348 15.9106 11.9015 15.9106 12.3244V15.6465C15.9106 16.0694 16.2034 16.4361 16.6157 16.5299L20.4208 17.3942C20.5305 17.6888 20.6553 17.9795 20.7933 18.2639L18.7071 21.5767C18.4815 21.9346 18.5337 22.4008 18.8328 22.6998L19.2648 23.132L10.1262 38.7104H9.40798C8.98509 38.7104 8.61794 39.0032 8.52416 39.4155L7.93583 42.0081C7.74296 42.0802 7.55364 42.1594 7.36785 42.2457L5.11627 40.8275C4.75884 40.6023 4.29083 40.6545 3.99269 40.9536L2.24362 42.7031C1.94459 43.0021 1.89239 43.4683 2.11799 43.8267L3.56183 46.1189C3.48752 46.2861 3.4194 46.4578 3.3557 46.6325L0.705112 47.235C0.292838 47.3288 0 47.6955 0 48.1184V50.592C9.05941e-08 51.0149 0.292838 51.3816 0.705112 51.4754ZM21.1817 25.0492C21.4816 25.3482 21.9487 25.4013 22.3053 25.1752L25.6733 23.0542C25.9343 23.1749 26.2006 23.2842 26.4687 23.3815L27.3516 27.2658C27.4454 27.6781 27.8126 27.9709 28.2355 27.9709H31.5575C31.9804 27.9709 32.3476 27.6781 32.4414 27.2658L33.3234 23.3815C33.5924 23.2842 33.8578 23.1749 34.1196 23.0542L37.4877 25.1752C37.8451 25.4013 38.3132 25.3482 38.6113 25.0492L39.1761 24.4842L47.5548 38.7671C47.273 38.8706 47.052 39.1095 46.9824 39.4155L46.3932 42.0081C46.2003 42.0798 46.011 42.159 45.8252 42.2457L43.5736 40.8275C43.2162 40.6023 42.7482 40.6545 42.4501 40.9536L40.701 42.7031C40.402 43.0021 40.3498 43.4683 40.5754 43.8267L42.0192 46.1189C41.9449 46.2866 41.8768 46.4578 41.8139 46.6329L39.1634 47.235C38.7511 47.3288 38.4582 47.6955 38.4582 48.1184V48.4493H21.2896V48.1184C21.2896 47.6955 20.9968 47.3288 20.5845 47.235L17.9339 46.6329C17.8711 46.4578 17.803 46.2866 17.7287 46.1189L19.1725 43.8267C19.3981 43.4683 19.3459 43.0021 19.0469 42.7031L17.2978 40.9536C16.9997 40.6545 16.5317 40.6023 16.1742 40.8275L13.9226 42.2457C13.7369 42.159 13.5475 42.0798 13.3547 42.0081L12.7654 39.4155C12.6958 39.1095 12.4749 38.8705 12.193 38.7671L20.5884 24.4558L21.1817 25.0492Z" fill="#19355C"/>
<path d="M44.9007 49.3552C44.9007 51.6722 46.786 53.5571 49.1031 53.5571C51.4201 53.5571 53.3045 51.6722 53.3045 49.3552C53.3045 47.0381 51.4201 45.1533 49.1031 45.1533C46.786 45.1533 44.9007 47.0381 44.9007 49.3552ZM51.4927 49.3552C51.4927 50.673 50.4204 51.7452 49.1031 51.7452C47.7848 51.7452 46.7126 50.673 46.7126 49.3552C46.7126 48.0374 47.7848 46.9651 49.1031 46.9651C50.4204 46.9651 51.4927 48.0374 51.4927 49.3552Z" fill="white"/>
<path d="M10.6448 53.5571C12.9619 53.5571 14.8472 51.6722 14.8472 49.3552C14.8472 47.0381 12.9619 45.1533 10.6448 45.1533C8.32779 45.1533 6.44336 47.0381 6.44336 49.3552C6.44336 51.6722 8.32779 53.5571 10.6448 53.5571ZM10.6448 46.9651C11.9631 46.9651 13.0353 48.0374 13.0353 49.3552C13.0353 50.673 11.9631 51.7452 10.6448 51.7452C9.32751 51.7452 8.25524 50.673 8.25524 49.3552C8.25524 48.0374 9.32751 46.9651 10.6448 46.9651Z" fill="white"/>
<path d="M29.896 19.3176C32.8368 19.3176 35.2291 16.9258 35.2291 13.9855C35.2291 11.0451 32.8368 8.65289 29.896 8.65289C26.9562 8.65289 24.5639 11.0451 24.5639 13.9855C24.5639 16.9258 26.9562 19.3176 29.896 19.3176ZM29.896 10.4648C31.838 10.4648 33.4172 12.044 33.4172 13.9855C33.4172 15.9265 31.838 17.5057 29.896 17.5057C27.955 17.5057 26.3758 15.9265 26.3758 13.9855C26.3758 12.044 27.955 10.4648 29.896 10.4648Z" fill="white"/>
</svg>
