<svg width="71" height="56" fill="none" xmlns="http://www.w3.org/2000/svg"><path fill-rule="evenodd" clip-rule="evenodd" d="M19.33 13.35L31.111 1.57c2.091-2.092 5.514-2.092 7.605 0L50.5 13.35c2.092 2.091 2.092 5.514 0 7.605l-1.826 1.826-3.965-3.965.596-.597a1.513 1.513 0 000-2.133l-1.372-1.372-.002.002-3.965-3.965.002-.003-3.986-3.985a1.513 1.513 0 00-2.134 0l-9.323 9.323a1.513 1.513 0 000 2.133l.738.738-3.965 3.965-1.968-1.967c-2.091-2.091-2.091-5.514 0-7.605zm18.035 0l1.828-1.826 3.965 3.965-.598.598a1.513 1.513 0 000 2.133l1.372 1.372.004-.003 3.965 3.965-.003.004 3.985 3.986a1.513 1.513 0 002.134 0l9.323-9.324a1.513 1.513 0 000-2.133l-9.323-9.323a1.513 1.513 0 00-2.134 0L48.67 9.977l-3.966-3.965 4.444-4.443c2.091-2.092 5.513-2.092 7.605 0L68.535 13.35c2.092 2.091 2.092 5.514 0 7.605L56.753 32.74c-2.092 2.09-5.514 2.09-7.605 0l-5.216-5.216-3.965-3.965-2.602-2.602c-2.091-2.091-2.091-5.514 0-7.605zm-35.796 0L13.35 1.57c2.091-2.092 5.514-2.092 7.605 0l4.306 4.305-3.965 3.966-3.077-3.076a1.513 1.513 0 00-2.133 0l-9.323 9.323a1.513 1.513 0 000 2.133l9.323 9.324a1.513 1.513 0 002.133 0l9.324-9.324a1.513 1.513 0 000-2.133l-.74-.74 3.966-3.965 1.969 1.969c2.09 2.091 2.09 5.514 0 7.605l-2.74 2.74.003.002-3.966 3.965-.002-.002-5.078 5.078c-2.091 2.09-5.514 2.09-7.605 0L1.569 20.956c-2.092-2.091-2.092-5.514 0-7.605zM43.16 28.296l-4.443 4.444c-2.091 2.09-5.514 2.09-7.605 0l-4.304-4.304 3.966-3.965 3.073 3.074a1.513 1.513 0 002.134 0l3.214-3.214 3.965 3.965z" fill="#586B86"/><path d="M14.505 45.804h-4.278v-.602c0-.568-.25-.976-.748-1.225-.401-.194-1.003-.291-1.806-.291-1.122 0-1.848.215-2.18.644-.278.36-.416 1.135-.416 2.325v2.43c0 1.301.118 2.139.353 2.513.332.526 1.08.789 2.243.789.955 0 1.592-.097 1.91-.291.43-.263.644-.817.644-1.661v-.457h4.278v.457c0 2.173-.447 3.644-1.34 4.412C12.272 55.616 10.594 56 8.13 56c-1.745 0-3.005-.09-3.78-.27-1.163-.277-2.028-.817-2.595-1.62-.637-.913-.956-2.277-.956-4.09v-4.03c0-2.395.651-4.022 1.952-4.88 1.039-.692 2.831-1.038 5.379-1.038 2.187 0 3.765.353 4.734 1.059 1.094.789 1.64 2.146 1.64 4.07v.602zM23.579 56c-2.381 0-4.111-.36-5.191-1.08-1.343-.886-2.015-2.457-2.015-4.714v-4.402c0-2.215.672-3.765 2.015-4.651 1.093-.72 2.824-1.08 5.191-1.08 2.381 0 4.112.353 5.191 1.059 1.343.872 2.015 2.43 2.015 4.672v4.402c0 2.23-.672 3.793-2.015 4.693-1.107.734-2.837 1.1-5.19 1.1zm0-3.613c1.135 0 1.89-.146 2.264-.436.443-.346.664-1.08.664-2.202V46.24c0-1.093-.215-1.806-.644-2.139-.36-.277-1.121-.415-2.284-.415-1.163 0-1.917.132-2.263.395-.443.332-.665 1.052-.665 2.16v3.508c0 1.108.215 1.835.644 2.18.374.305 1.135.458 2.284.458zm13.643-6.313h2.45v-.27c0-2.215.672-3.765 2.015-4.651 1.093-.72 2.824-1.08 5.191-1.08 2.381 0 4.112.353 5.191 1.059 1.343.872 2.015 2.43 2.015 4.672v4.402c0 2.23-.679 3.793-2.035 4.693-1.108.734-2.838 1.1-5.192 1.1-2.367 0-4.09-.359-5.17-1.079-1.343-.9-2.015-2.471-2.015-4.714v-.519h-2.45v6.105H33.07V40.218h4.153v5.856zm9.656 6.313c1.135 0 1.89-.146 2.264-.436.442-.346.664-1.08.664-2.202V46.24c0-1.093-.214-1.806-.644-2.139-.36-.277-1.121-.415-2.284-.415-1.135 0-1.89.145-2.263.436-.443.346-.665 1.052-.665 2.118v3.51c0 1.093.204 1.806.613 2.138.408.333 1.18.499 2.315.499zm14.245-3.053v-2.886h1.973c.54 0 .914-.042 1.121-.125.457-.18.686-.637.686-1.37 0-.513-.139-.873-.416-1.08-.36-.263-1.038-.395-2.035-.395-.872 0-1.481.108-1.827.322-.346.215-.52.64-.52 1.277H56.14v-.643c0-1.634.553-2.79 1.66-3.468.97-.596 2.541-.893 4.715-.893 2.187 0 3.786.277 4.796.83 1.163.637 1.745 1.738 1.745 3.302 0 1.108-.146 1.91-.436 2.409-.36.637-1.032 1.031-2.015 1.184v.166c.97.083 1.662.401 2.077.955.415.554.623 1.329.623 2.326 0 1.869-.415 3.114-1.246 3.737-.9.679-2.734 1.018-5.503 1.018-2.381 0-4.028-.305-4.942-.914-1.108-.747-1.661-2.173-1.661-4.277h3.987c0 .775.17 1.266.508 1.474.34.208 1.042.311 2.108.311.997 0 1.679-.114 2.046-.342.366-.229.55-.668.55-1.319 0-.581-.135-.993-.405-1.235-.27-.243-.744-.364-1.423-.364h-2.2z" fill="#F00E0E"/></svg>