<svg width="1120" height="80" viewBox="0 0 1120 80" fill="none" xmlns="http://www.w3.org/2000/svg">
<path d="M1111.44 79.7071C1111.83 80.0976 1112.46 80.0976 1112.85 79.7071L1119.22 73.3431C1119.61 72.9526 1119.61 72.3195 1119.22 71.9289C1118.83 71.5384 1118.19 71.5384 1117.8 71.9289L1112.15 77.5858L1106.49 71.9289C1106.1 71.5384 1105.47 71.5384 1105.08 71.9289C1104.68 72.3195 1104.68 72.9526 1105.08 73.3431L1111.44 79.7071ZM10 11H561.073V9H10V11ZM561.073 11H836.61V9H561.073V11ZM836.61 11H974.378V9H836.61V11ZM974.378 11C1043.11 11 1077.25 28.2106 1094.22 45.2065C1102.71 53.7093 1106.94 62.1953 1109.04 68.5345C1110.1 71.7058 1110.63 74.3421 1110.89 76.1763C1111.02 77.0934 1111.08 77.8096 1111.11 78.2915C1111.13 78.5324 1111.14 78.7148 1111.14 78.8343C1111.14 78.894 1111.15 78.938 1111.15 78.9658C1111.15 78.9797 1111.15 78.9896 1111.15 78.9953C1111.15 78.9982 1111.15 79 1111.15 79.0008C1111.15 79.0012 1111.15 79.001 1111.15 79.0012C1111.15 79.0007 1111.15 79 1112.15 79C1113.15 79 1113.15 78.9988 1113.15 78.9973C1113.15 78.9964 1113.15 78.9946 1113.15 78.9929C1113.15 78.9895 1113.15 78.9851 1113.15 78.9796C1113.15 78.9686 1113.15 78.9534 1113.15 78.9341C1113.15 78.8956 1113.14 78.8407 1113.14 78.7699C1113.14 78.6283 1113.13 78.4231 1113.11 78.1587C1113.08 77.6299 1113.01 76.8636 1112.87 75.894C1112.59 73.9548 1112.04 71.2004 1110.94 67.903C1108.75 61.3047 1104.37 52.5407 1095.63 43.7935C1078.16 26.2894 1043.42 9 974.378 9V11Z" fill="url(#paint0_linear_117_749)"/>
<rect width="20" height="20" rx="10" fill="#FF0000"/>
<defs>
<linearGradient id="paint0_linear_117_749" x1="17.4739" y1="10" x2="888.927" y2="10" gradientUnits="userSpaceOnUse">
<stop stop-color="#FF0000"/>
<stop offset="1" stop-color="white" stop-opacity="0.13"/>
</linearGradient>
</defs>
</svg>
