<svg width="42" height="42" viewBox="0 0 42 42" fill="none" xmlns="http://www.w3.org/2000/svg">
<rect width="42" height="42" rx="21" fill="#FF0000"/>
<g clip-path="url(#clip0_1_160)">
<path fill-rule="evenodd" clip-rule="evenodd" d="M13.0103 21.0993C13.4 16.6202 17.3533 12.9792 21.7813 12.9792C24.3583 12.9792 26.2237 13.8222 27.3993 15.1016C28.5733 16.3793 29.1764 18.2191 28.9865 20.4467C28.5727 23.6374 27.2897 24.5064 26.6795 24.6389C26.3492 24.7106 26.1108 24.6196 25.9802 24.5073C25.8635 24.407 25.7566 24.2276 25.8013 23.9099L26.7494 16.7993C26.8163 16.2975 26.4638 15.8364 25.9619 15.7695L25.5076 15.7089C25.0058 15.642 24.5448 15.9946 24.4778 16.4964L24.4644 16.5979C23.9988 16.1455 23.4334 15.7833 22.773 15.5464C19.9454 14.5317 16.9557 16.3857 15.9014 19.2416C14.8458 22.1009 15.9295 25.4347 18.7687 26.4536C20.5649 27.0981 22.4263 26.5853 23.8156 25.3932C23.9807 25.7166 24.2071 26.005 24.4859 26.2449C25.2058 26.8638 26.1921 27.0897 27.1656 26.8784C29.1614 26.4452 30.7971 24.3526 31.2625 20.7146C31.2645 20.6995 31.2661 20.6844 31.2674 20.6693C31.5093 17.907 30.7738 15.3869 29.0867 13.551C27.3973 11.7125 24.8715 10.6875 21.7813 10.6875C16.1472 10.6875 11.2185 15.2548 10.7273 20.9007C10.2297 26.6194 14.4594 31.3125 20.1757 31.3125C21.94 31.3125 23.0696 31.1669 24.7254 30.4669L24.9364 30.3776C25.4028 30.1804 25.621 29.6426 25.4238 29.1763L25.2454 28.7542C25.0482 28.2879 24.5104 28.0697 24.0441 28.2669L23.833 28.3561C22.5323 28.906 21.7239 29.0208 20.1757 29.0208C15.83 29.0208 12.6269 25.5056 13.0103 21.0993ZM18.0513 20.0352C18.781 18.0584 20.6354 17.214 21.999 17.7034C23.3511 18.1885 24.2189 19.9916 23.4904 21.9648C22.7606 23.9416 20.9063 24.7859 19.5427 24.2966C18.1906 23.8114 17.3228 22.0084 18.0513 20.0352Z" fill="white"/>
</g>
<defs>
<clipPath id="clip0_1_160">
<rect width="22" height="22" fill="white" transform="translate(10 10)"/>
</clipPath>
</defs>
</svg>
