<svg width="42" height="42" viewBox="0 0 42 42" fill="none" xmlns="http://www.w3.org/2000/svg">
<rect width="42" height="42" rx="21" fill="#FF0000"/>
<path fill-rule="evenodd" clip-rule="evenodd" d="M15.8653 12.1068C15.4741 11.2384 15.063 11.2184 14.6919 11.2085C14.391 11.1985 14.04 11.1985 13.689 11.1985C13.338 11.1985 12.7764 11.3282 12.2951 11.8473C11.8137 12.3663 10.4698 13.6239 10.4698 16.189C10.4698 18.7441 12.3452 21.2194 12.6059 21.5687C12.8667 21.9181 16.2263 27.3377 21.5314 29.4238C25.944 31.1605 26.8466 30.8111 27.7993 30.7213C28.7521 30.6315 30.8882 29.4637 31.3294 28.246C31.7607 27.0283 31.7607 25.9903 31.6303 25.7707C31.4999 25.5512 31.1489 25.4214 30.6274 25.1619C30.1059 24.9024 27.5386 23.6448 27.0572 23.4651C26.5759 23.2954 26.2249 23.2056 25.8839 23.7246C25.5329 24.2436 24.53 25.4114 24.2292 25.7608C23.9283 26.1101 23.6174 26.15 23.0959 25.8905C22.5744 25.631 20.8896 25.082 18.8939 23.3054C17.3395 21.9281 16.2865 20.2213 15.9856 19.7023C15.6847 19.1833 15.9555 18.9038 16.2163 18.6443C16.4469 18.4147 16.7378 18.0355 16.9985 17.736C17.2592 17.4366 17.3495 17.217 17.52 16.8677C17.6905 16.5184 17.6102 16.2189 17.4799 15.9594C17.3495 15.7099 16.3266 13.1348 15.8653 12.1068Z" fill="white"/>
</svg>
