<svg width="64" height="64" fill="none" xmlns="http://www.w3.org/2000/svg"><g clip-path="url(#clip0_150_2082)"><path d="M56.358 15.206H43.925V8.243a5.737 5.737 0 00-5.731-5.732H25.776a5.737 5.737 0 00-5.732 5.732v6.963H7.642A7.642 7.642 0 000 22.847v35a7.642 7.642 0 007.642 7.642h48.716A7.642 7.642 0 0064 57.847v-35a7.641 7.641 0 00-7.642-7.641zM23.865 8.243c0-1.054.857-1.91 1.91-1.91h12.419c1.053 0 1.91.856 1.91 1.91v6.963H23.865V8.243z" fill="#627590"/><path d="M48.69 43.895c0 1.097-.14 2.088-.42 2.975-.28.887-.7 1.657-1.26 2.31a5.507 5.507 0 01-2.1 1.505c-.84.35-1.82.525-2.94.525-2.217 0-3.885-.653-5.005-1.96-1.097-1.33-1.645-3.103-1.645-5.32 0-1.12.14-2.123.42-3.01.28-.91.7-1.692 1.26-2.345a5.507 5.507 0 012.1-1.505c.84-.35 1.82-.525 2.94-.525 2.263 0 3.932.665 5.005 1.995 1.097 1.33 1.645 3.115 1.645 5.355zm-4.06.035c0-1.19-.198-2.182-.595-2.975-.373-.793-1.062-1.19-2.065-1.19-.957 0-1.633.397-2.03 1.19-.373.77-.56 1.75-.56 2.94 0 .583.047 1.132.14 1.645.093.49.245.922.455 1.295.21.373.478.665.805.875.35.21.77.315 1.26.315.957 0 1.622-.385 1.995-1.155.397-.793.595-1.773.595-2.94zm-14-9.38c0 1.097-.14 2.088-.42 2.975-.28.887-.7 1.657-1.26 2.31a5.507 5.507 0 01-2.1 1.505c-.84.35-1.82.525-2.94.525-2.217 0-3.885-.653-5.005-1.96-1.097-1.33-1.645-3.103-1.645-5.32 0-1.12.14-2.123.42-3.01.28-.91.7-1.692 1.26-2.345a5.507 5.507 0 012.1-1.505c.84-.35 1.82-.525 2.94-.525 2.263 0 3.932.665 5.005 1.995 1.097 1.33 1.645 3.115 1.645 5.355zm-4.06.035c0-1.19-.198-2.182-.595-2.975-.373-.793-1.062-1.19-2.065-1.19-.957 0-1.633.397-2.03 1.19-.373.77-.56 1.75-.56 2.94 0 .583.047 1.132.14 1.645.093.49.245.922.455 1.295.21.373.478.665.805.875.35.21.77.315 1.26.315.957 0 1.622-.385 1.995-1.155.397-.793.595-1.773.595-2.94zm.91 16.905c-.117.21-.268.362-.455.455-.163.117-.408.175-.735.175h-1.785c-.257 0-.42-.07-.49-.21-.047-.117-.012-.268.105-.455l14.49-24.64c.117-.187.222-.315.315-.385.093-.093.268-.14.525-.14h2.065c.21 0 .35.058.42.175.093.117.07.292-.07.525L27.48 51.49z" fill="#34F36A"/></g><defs><clipPath id="clip0_150_2082"><path fill="#fff" d="M0 0h64v64H0z"/></clipPath></defs></svg>