<svg width="64" height="65" fill="none" xmlns="http://www.w3.org/2000/svg"><path fill-rule="evenodd" clip-rule="evenodd" d="M2 30.661v4.677c.298.725.28 2.065.42 2.865a30.757 30.757 0 002.557 7.912c2.966 6.177 7.74 10.805 13.877 13.878C24.312 62.727 29.37 62.813 29.74 63h4.52c.183-.092 2.343-.324 2.825-.404 9.542-1.588 17.727-7.856 21.883-16.369.757-1.55 1.45-3.34 1.926-5.047.55-1.97.981-5.539 1.106-5.842v-4.677c-.59-1.432-.184-10.319-8.782-18.928-2.272-2.276-4.688-4.04-8.183-5.783-2.299-1.146-5.29-2.104-7.95-2.546-.481-.08-2.641-.312-2.825-.404h-4.52c-.534.269-10.477.241-18.958 8.733C2.192 20.337 2.572 29.271 2 30.662zm2.25 1.096c.485-.122 2.032-2.12 4.687-1.02 1.78.737 2.133 2.55 2.129 4.816-.898-.567-2.251-3.204-4.221-2.21-1.393.704-2.003 3.108-1.57 4.795.031.01.085-.019.097.013l.401-.069c.384-.169 2.669-2.746 4.345-.441-1.078.652-3.32.837-3.35 4.639-.024 3.057.824 3.834 2.19 5.847 4.323 6.37 11.554 11.63 19.722 12.362 7.883.707 9.07-4.598 10.154-5.965.349.188.077-.072.365.326.102.143.208.422.26.568.153.434.258.864.324 1.312.165 1.132.052 1.787-.217 2.724 1.273.024 3.454-1.307 4.133-2.725.828-1.728.463-4.954.968-6.002.632.243 1.02 1.295 1.276 1.893.38.883.531 1.68.831 2.442l.284-.624c.513-1.773.206-3.323 1.572-4.67 1.502.418 1.873 2.1 2.714-.187.158-.43.28-.784.43-1.231a28.23 28.23 0 00.71-2.426c.768-3.17-.125-2.514-1.128-4.501-.56-1.108-1.084-4.373-1.461-4.839-.408-.502-1.114-.45-1.79-1.365-.406-.55-.924-1.351-.9-2.143l.944.334c-.031-1.573-.888-.705-.448-4.258l-3.022-1.297c-1.977-.773-1.758-.926-3.062-1.532.412 2.862-1.746 3.762-1.657 5.682l.816.033c.824 3.113 1.648 1.919 2.35 3.657.48 1.192.08 4.194-.791 4.92-1.477-.582.39-.524-3.864-1.784-1.532-.454-2.893-1.111-3.04-2.682.642-.554 1.135-.427 1.575-1.16-.072-.601-.846-1.678-1.15-2.515-.38-1.049-.518-2.055-.406-3.293.084-.926.53-2.065 1.006-2.693.899-1.184 1.486-.813 2.192-1.464-1.789-.71-3.348-1.144-3.909-3.04-.675-2.283.791-4.212 2.06-4.908-.458-.422-3.56-1.773-4.227-2.806 1.616-1.515 4.385.452 5.43 1.213 1.149-.652 1.23-1.941 4.385-1.904 2.01-3.56 3.345-2.189 6.243-2.307-1.457-2.63-9.402-5.4-13.395-5.872C24.78 4.167 14.532 9.072 9.077 17.33c-2.467 3.735-4.825 8.902-4.826 14.428H4.25zm47.295-14.992c-3.497-.702-2.295-3.271-3.044-4.11-1.104.515-.495 2.258-1.64 3.302-1.23 1.121-2.462-.258-3.483-.51-.256 1.543-1.05 4.602-.328 6.235.168.379.069.198.284.427.616-.835.45-4.088 3.834-4.088 3.59 0 3.875 3.898 3.875 6.526 0 1.663-.813 2.98-.902 4.143l1.723 1.856c.213-.665.674-1.629 1.083-2.072 1.474-1.6.551-.994 1.422-1.901 2.627-2.736 1.735-2.106.926-4.347.72-.739 2.619-.823-.642-5.452-.723-1.026-3.167-3.995-4.361-4.395-.275 2.07.728 2.78 1.253 4.386zm1.453 14.757c.019 1.03.361 1.185.816 1.997.324.58.665 1.318 1.02 1.79.369-.354.222-.408.667-.739.672.509 1.367 1.315 1.035 2.44-.363 1.229.321 1.5.321 3.946 0 2.807-1.624 2.624-2.204 4.124-.46 1.191-1.12 3.74-1.372 5.023.52-.234.372-.222.943-.804.81-.826 1.522-1.932 2.088-2.897 1.745-2.973 2.912-6.8 3.218-10.25.311-3.495.444-3.948-1.404-5.065-1.444 1.321-3.216 1.446-5.128.435zm-7.934-7.97c0 1.962 1.86 3.925 3.603 4.128 1.862-1.895.555-5.895-.9-6.717-1.821-1.028-2.702 1.058-2.703 2.59zm-6.31-4.475c-.002 2.452 1.545 4.463 3.634 4.796-1.007-1.58-1.319-1.56-1.319-3.967 0-3.096 1.022-4.353 1.132-5.595-1.07.768-.188.698-1.989 1.993-.89.64-1.457 1.36-1.459 2.773zm15.41 23.153c1.676-1.531-1.028-7.728-1.997-8.696-.638.97-.154 3.618.1 4.844.23 1.117.758 3.513 1.897 3.852zm1.639-15.197c.796.46 1.517.56 2.19 1.17.692.625.864 1.213 1.508 1.837.035-.067.076-.077.1-.376l-.192-1.364a93.47 93.47 0 00-.368-1.792c-.241-1.12-.591-2.378-1.207-3.132-.3.6-.357 1.47-.723 2.105-.439.76-.777 1.082-1.308 1.552zm-17.636 6.124c.517-1.116-.95-2.95.055-4.4l1.299.482c.18-1.23.299-1.899-.394-2.805-3.073.965-2.787 5.97-.96 6.723zM37.085 10.93c-.359.68-1.017 1.428-.957 2.174.14 1.736 4.063 1.502 2.987-.757-.476-.996-.638-1.484-2.03-1.417zm-.688 9.971c.003 1.747 1.863 2.94 3.199 2.924-2.05-1.763-2.19-3.073-1.986-5.536-.732.255-1.215 1.59-1.213 2.612zm9.489-6.056c.637-.409.892-1.47.888-2.337-2.781-.782-3.644 2.902-.889 2.337zm4.542 19.923c.34-2.207.413-2.48-.472-3.876-.26-.412-.313-.593-.928-.757-.218 1.325-.03 1.708.464 2.722.536 1.1-.192 1.664.936 1.911zm4.046-4.224c1.143.482 2.207.02 2.875-.693-.614-1.379-3.366-1.213-2.875.693z" fill="#34F36A"/><path d="M16.427 44.274V18.57h6.768c3.145 0 5.473.636 6.985 1.908 1.535 1.272 2.303 3.12 2.303 5.544 0 1.632-.371 3.036-1.115 4.212-.744 1.152-1.848 2.04-3.313 2.664-1.44.624-3.227.936-5.363.936h-3.024v10.44h-3.24zm-3.131-4.896v-2.34h12.312v2.34H13.295zm0-5.544v-2.736h8.244v2.736h-8.244zm8.928-2.736c1.463 0 2.7-.156 3.707-.468 1.032-.312 1.825-.828 2.377-1.548.552-.72.828-1.704.828-2.952 0-1.632-.505-2.844-1.512-3.636-1.008-.792-2.58-1.188-4.716-1.188h-3.24v9.792h2.556z" fill="#34F36A"/><path fill-rule="evenodd" clip-rule="evenodd" d="M32 64.5c-17.673 0-32-14.327-32-32C0 14.827 14.327.5 32 .5c17.673 0 32 14.327 32 32 0 17.673-14.327 32-32 32zm0-60.903c-15.963 0-28.903 12.94-28.903 28.903S16.037 61.403 32 61.403 60.903 48.463 60.903 32.5 47.963 3.597 32 3.597z" fill="#627590"/><rect x="2.5" y="3" width="59" height="59" rx="29.5" stroke="#627590" stroke-width="5"/></svg>