<svg width="64" height="65" fill="none" xmlns="http://www.w3.org/2000/svg"><rect x="2.5" y="3.006" width="59" height="58.994" rx="29.497" stroke="#627590" stroke-width="5"/><path fill-rule="evenodd" clip-rule="evenodd" d="M4.194 40.037c0 .64.188 1.326.656 1.7.124.094.312.234.452.281.094-.421.67-1.076.936-1.42.28-.358.874-.857 1.28-1.123l.733-.42c3.104-1.514 5.96-.204 6.302-.204.14 0 2.138-1.107 2.543-1.31 1.7-.858 1.888-1.607 2.668-3.151.203-.406 1.732-3.681 1.934-3.915v9.453c-.28.14-2.714.733-3.245.858-.171.047-.343.047-.42.171.498.125 13.634 6.802 13.822 6.802.062 0 1.528-.765 1.716-.858a91.458 91.458 0 011.747-.874l8.674-4.383c.297-.156.546-.281.858-.422.234-.124.687-.265.843-.483-.25 0-3.495-.718-3.682-.811v-9.453c.234.265 1.092 2.183 1.31 2.62l.968 1.981c.218.437.405.874.701 1.264.063.078.14.187.203.265.094.094.172.14.281.234.187.172.359.28.562.421.577.437 1.232.733 1.887 1.061 1.779.89.92.702 2.512.312.624-.156 1.435-.172 2.09-.172 1.592 0 3.417.718 4.4 1.638l.156.156c.281.234.53.5.749.796.094.125.172.218.25.343l.483.764c.593-.28.671-.483.936-1.076.125-.265.125-.624.125-.936 0-1.357-1.357-2.496-2.387-3.12-1.31-.795-2.668-1.528-3.962-2.37-.172-.126-.328-.204-.5-.313a7.56 7.56 0 00-.468-.296l-1.466-.936c-.172-.11-.312-.187-.468-.296-.187-.125-.234-.297-.312-.515l-3.09-8.767c-.077-.219-.124-.406-.202-.609a4.863 4.863 0 00-.562-1.014c-.436-.639-1.03-1.076-1.669-1.497-.655-.437-2.652-1.092-3.4-1.342-2.903-.967-6.366-1.98-9.455-1.98-2.09 0-5.835.889-7.847 1.56-.811.265-1.623.467-2.387.78l-1.139.405a4.98 4.98 0 00-1.092.499c-.577.343-1.28.936-1.638 1.529-.453.748-.671 1.372-.952 2.215-.655 1.95-1.404 3.853-2.06 5.818l-.826 2.34c-.156.5-.296.453-.811.765-.328.203-.64.405-.967.608-.157.094-.297.203-.469.296-.155.094-.327.203-.499.312l-.951.593c-1.217.765-2.84 1.654-3.932 2.403a6.166 6.166 0 00-.905.764l-.312.374a2.628 2.628 0 00-.327.484c-.172.327-.343.733-.343 1.248l-.032-.047z" fill="#34F36A"/><path fill-rule="evenodd" clip-rule="evenodd" d="M23.54 62.5c1.419 0 1.575-.265 2.73-.733l14.555-6.318c1.342-.593 3.682-1.544 4.867-2.106.188-.093.344-.156.546-.234.188-.078.344-.156.53-.234.204-.078.344-.14.547-.234.203-.093.343-.156.53-.234 1.654-.67 3.713-1.606 5.398-2.34.375-.156.733-.327 1.108-.483.718-.297 1.264-.78 1.685-1.404.827-1.232.92-2.917.359-4.306-.188-.483-.297-.701-.578-1.091l-.53-.624c-.92-.718-1.654-1.092-3.027-1.092-1.544 0-2.652.733-3.962 1.388-.219.11-.39.187-.593.296-.218.11-.359.203-.577.312L23.352 55.06c-.811.406-1.576.702-2.215 1.342-.172.171-.281.265-.422.483-.702 1.061-.889 2.294-.405 3.495.062.14.078.171.14.28.063.11.11.203.172.297.624.951 1.763 1.544 2.948 1.544h-.03zm.764-54.723c0 1.31.187 2.387.718 3.432a8.65 8.65 0 001.06 1.638c1.311 1.545 3.417 2.715 5.508 2.715 1.31 0 2.387-.188 3.432-.718a6.68 6.68 0 001.123-.67c.172-.126.343-.25.515-.39l.5-.453c1.247-1.248 2.215-3.23 2.215-5.054 0-1.31-.188-2.387-.718-3.432-.11-.219-.187-.406-.312-.577-.125-.188-.218-.36-.359-.546-.468-.624-.733-.92-1.31-1.435-.422-.375-1.14-.812-1.67-1.077-2.028-1.03-5.054-.951-6.942.312-.374.25-.686.437-1.06.733l-.921.92c-.983 1.108-1.794 3.011-1.794 4.587l.015.015zM6.94 45.73c0 .874.14 1.514.546 2.247.562 1.014 1.186 1.326 2.153 1.732l2.746 1.185c.608.265 1.2.53 1.794.78.686.28 5.35 2.355 5.476 2.355l8.908-4.617c.14-.078.218-.062.25-.218-.22-.047-.843-.39-1.077-.515l-10.53-5.304c-.172-.078-.344-.172-.515-.25-2.31-1.154-4.322-2.667-7.099-1.622-1.7.64-2.652 2.465-2.652 4.228zm28.315 14.976v.078c.188.016 1.95.796 2.2.89.89.343 1.373.702 2.559.702 2.028 0 3.635-1.435 3.635-3.417 0-.608-.016-1.108-.297-1.622l-4.04 1.7c-.36.156-3.87 1.67-4.057 1.685v-.016z" fill="#34F36A"/></svg>