<svg width="52" height="60" fill="none" xmlns="http://www.w3.org/2000/svg"><path fill-rule="evenodd" clip-rule="evenodd" d="M49.486 9.903c0-.63-.282-1.223-.77-1.628a2.162 2.162 0 00-1.758-.461C41.084 8.629 34.21 7.03 28.33 2.93a4.28 4.28 0 00-5.018.01C17.44 7.068 10.577 8.728 4.699 7.88a2.154 2.154 0 00-1.747.442c-.486.398-.768.99-.768 1.612C2.15 17.18 2.15 37.54 2.15 44.943c0 1.666.986 3.178 2.522 3.866l19.364 8.689a4.368 4.368 0 003.563 0c4.163-1.87 14.549-6.53 19.364-8.689a4.242 4.242 0 002.522-3.866V9.903z" fill="#26437D"/><path fill-rule="evenodd" clip-rule="evenodd" d="M51.638 44.944V9.9a4.221 4.221 0 00-1.541-3.255 4.344 4.344 0 00-3.47-.932c-5.38.74-11.664-.76-17.05-4.516a6.463 6.463 0 00-7.517.015C16.7 4.977 10.455 6.543 5.086 5.79a4.337 4.337 0 00-3.507.898A4.197 4.197 0 00.032 9.935C0 17.171 0 37.54 0 44.944c0 2.499 1.48 4.764 3.785 5.798l19.364 8.686a6.52 6.52 0 005.34 0l19.364-8.686c2.304-1.034 3.785-3.3 3.785-5.798zM47.332 9.9l.002.002v35.04c0 .833-.492 1.589-1.26 1.935-4.813 2.157-15.201 6.818-19.364 8.684a2.172 2.172 0 01-1.782 0c-4.163-1.866-14.551-6.527-19.364-8.684a2.125 2.125 0 01-1.26-1.934c0-7.392 0-27.705.031-34.97l.007.002c6.412.923 13.858-.837 20.22-5.309l.013-.008a2.12 2.12 0 012.487-.015l.013.009C33.45 9.1 40.9 10.797 47.257 9.914l.075-.013z" fill="#26437D"/><path d="M22.463 36.752l-6.771-6.682a2.105 2.105 0 010-3.003 2.173 2.173 0 013.042 0l5.25 5.179 11.16-11.011a2.17 2.17 0 013.042 0c.84.828.84 2.174 0 3.002L25.505 36.752a2.173 2.173 0 01-3.042 0z" fill="#34F36A"/></svg>