<svg width="54" height="60" fill="none" xmlns="http://www.w3.org/2000/svg"><path d="M49.5 0h-45A4.506 4.506 0 000 4.5v51A4.506 4.506 0 004.5 60h45a4.506 4.506 0 004.5-4.5v-51A4.506 4.506 0 0049.5 0z" fill="#26437D"/><path d="M48 21H6V6h42v15zM9 27h6a3 3 0 013 3v6a3 3 0 01-3 3H9a3 3 0 01-3-3v-6a3 3 0 013-3zm15 0h6a3 3 0 013 3v6a3 3 0 01-3 3h-6a3 3 0 01-3-3v-6a3 3 0 013-3zm0 15h6a3 3 0 013 3v6a3 3 0 01-3 3h-6a3 3 0 01-3-3v-6a3 3 0 013-3zM9 42h6a3 3 0 013 3v6a3 3 0 01-3 3H9a3 3 0 01-3-3v-6a3 3 0 013-3zm30-15h6a3 3 0 013 3v21a3 3 0 01-3 3h-6a3 3 0 01-3-3V30a3 3 0 013-3z" fill="#fff"/></svg>