<svg width="60" height="60" fill="none" xmlns="http://www.w3.org/2000/svg"><path fill-rule="evenodd" clip-rule="evenodd" d="M6.159 44.401A27.708 27.708 0 012.146 30C2.146 14.627 14.626 2.146 30 2.146c15.373 0 27.853 12.48 27.853 27.854 0 15.373-12.48 27.853-27.853 27.853a27.74 27.74 0 01-11.41-2.44l-16.444 2.44 4.013-13.452z" fill="#26437D"/><path fill-rule="evenodd" clip-rule="evenodd" d="M3.837 44.68L.09 57.24a2.141 2.141 0 00.436 2.018c.48.555 1.21.826 1.935.718l15.836-2.35A29.89 29.89 0 0030 60c16.557 0 30-13.443 30-30C60 13.443 46.557 0 30 0 13.443 0 0 13.443 0 30c0 5.33 1.395 10.338 3.837 14.68zm4.38.334a2.155 2.155 0 00-.222-1.725A25.573 25.573 0 014.292 30C4.292 15.81 15.812 4.292 30 4.292 44.19 4.292 55.709 15.81 55.709 30c0 14.188-11.519 25.709-25.709 25.709a25.58 25.58 0 01-10.527-2.251 2.144 2.144 0 00-1.197-.168L5.167 55.236l3.05-10.222z" fill="#26437D"/><path d="M21.376 27.895h2.146v-4.291h-4.291a2.147 2.147 0 010-4.292h4.291a4.29 4.29 0 014.292 4.292v4.291a4.29 4.29 0 01-4.292 4.292h-2.146v4.291h4.292a2.147 2.147 0 010 4.292h-4.292a4.29 4.29 0 01-4.291-4.292v-4.291a4.29 4.29 0 014.291-4.292zm17.166-6.437c0-2.843 4.292-2.843 4.292 0v17.166a2.147 2.147 0 01-4.292 0v-6.437h-4.291a4.29 4.29 0 01-4.291-4.292v-6.437a2.147 2.147 0 014.291 0v6.437h4.291v-6.437z" fill="#34F36A"/></svg>