<svg width="70" height="52" fill="none" xmlns="http://www.w3.org/2000/svg"><path fill-rule="evenodd" clip-rule="evenodd" d="M12.28 40.18V23.6l19.499 8.031c1.03.443 2.06.369 3.09 0l20.015-8.253v16.875c0 .295-.073.516-.147.81 0 0-3.826 9.138-20.971 10.465h-.368C17.872 50.275 13.31 42.685 12.574 41.21c-.221-.295-.295-.59-.295-1.032zM1.241 13.061L32.588.166a1.883 1.883 0 011.546 0L65.48 13.062c1.251.515 1.62 2.137.81 3.168v19.454l3.384 5.38c.883 1.326-.147 3.095-1.692 3.095h-7.358c-1.693 0-2.576-1.916-1.693-3.243l3.312-5.232V18.146l-28.11 11.57a1.883 1.883 0 01-1.545 0L1.242 16.82c-1.693-.663-1.619-3.095 0-3.758z" fill="#26437D"/></svg>