<svg width="60" height="60" fill="none" xmlns="http://www.w3.org/2000/svg"><path d="M.705 51.475l2.713.617c.057.146.12.29.185.433l-1.486 2.36a.907.907 0 00.127 1.123l1.749 1.749c.3.299.766.351 1.123.126l2.402-1.513c.125.055.25.107.377.155l.63 2.77c.093.412.46.705.883.705h2.474c.423 0 .79-.293.883-.705l.63-2.77c.126-.048.253-.1.376-.155l2.403 1.513a.907.907 0 001.124-.126l1.749-1.75a.907.907 0 00.126-1.122l-1.486-2.36c.066-.143.128-.287.186-.433l2.711-.617a.906.906 0 00.706-.883v-.33h17.168v.33c0 .423.293.79.705.883l2.712.617c.057.146.12.29.186.433l-1.486 2.36a.907.907 0 00.126 1.123l1.75 1.749a.906.906 0 001.123.126l2.403-1.513c.123.055.25.107.376.155l.63 2.77c.093.412.46.705.883.705h2.474c.423 0 .79-.293.884-.705l.629-2.77c.126-.048.252-.1.377-.155l2.402 1.513a.907.907 0 001.123-.126l1.75-1.75a.907.907 0 00.126-1.122l-1.487-2.36a7.14 7.14 0 00.186-.433l2.713-.617a.906.906 0 00.705-.883v-2.474a.906.906 0 00-.705-.883l-2.65-.602a8.086 8.086 0 00-.207-.514l1.444-2.292a.906.906 0 00-.126-1.124l-1.749-1.75a.907.907 0 00-1.123-.126l-2.252 1.419a7.98 7.98 0 00-.568-.238l-.588-2.593a.907.907 0 00-.884-.705h-.718L40.5 23.16l.46-.46a.905.905 0 00.126-1.123L39 18.264c.138-.286.263-.576.371-.87l3.805-.864a.906.906 0 00.706-.884v-3.322a.906.906 0 00-.706-.883l-3.727-.847a10.073 10.073 0 00-.39-.98l2.027-3.22a.905.905 0 00-.126-1.123l-2.349-2.35a.907.907 0 00-1.123-.125l-3.17 1.995c-.34-.165-.69-.312-1.049-.439L32.441.705A.907.907 0 0031.557 0h-3.322a.907.907 0 00-.883.705l-.83 3.647a9.989 9.989 0 00-1.048.44l-3.169-1.996a.907.907 0 00-1.123.126l-2.35 2.349a.907.907 0 00-.126 1.123l2.029 3.22c-.146.316-.277.643-.392.98l-3.727.847a.906.906 0 00-.705.883v3.322c0 .423.292.79.705.884l3.805.864c.11.295.234.586.372.87l-2.086 3.313a.905.905 0 00.126 1.123l.432.432-9.139 15.578h-.718a.907.907 0 00-.884.706l-.588 2.592a7.984 7.984 0 00-.568.238l-2.252-1.419a.907.907 0 00-1.123.127l-1.75 1.75a.906.906 0 00-.125 1.123l1.444 2.292a8.08 8.08 0 00-.206.514l-2.65.602a.906.906 0 00-.706.883v2.474c0 .423.293.79.705.883zM21.182 25.05c.3.3.767.352 1.123.126l3.368-2.12c.261.12.528.23.796.326l.883 3.885a.907.907 0 00.883.705h3.323c.422 0 .79-.293.883-.705l.882-3.884c.27-.098.535-.207.797-.328l3.368 2.121a.905.905 0 001.123-.126l.565-.565 8.379 14.283a.906.906 0 00-.573.648l-.589 2.593a7.647 7.647 0 00-.568.238l-2.251-1.419a.906.906 0 00-1.124.127l-1.749 1.75a.906.906 0 00-.126 1.123l1.444 2.292a7.662 7.662 0 00-.205.514l-2.65.602a.906.906 0 00-.706.883v.331H21.29v-.33a.906.906 0 00-.706-.884l-2.65-.602a7.608 7.608 0 00-.205-.514l1.444-2.292a.906.906 0 00-.126-1.124l-1.75-1.75a.907.907 0 00-1.123-.126l-2.251 1.419a7.623 7.623 0 00-.568-.238l-.59-2.593a.905.905 0 00-.572-.648l8.395-14.311.594.593z" fill="#19355C"/><path d="M44.9 49.355a4.207 4.207 0 004.203 4.202 4.206 4.206 0 004.201-4.202 4.206 4.206 0 00-4.2-4.202 4.207 4.207 0 00-4.203 4.202zm6.593 0a2.393 2.393 0 01-2.39 2.39 2.393 2.393 0 01-2.39-2.39 2.393 2.393 0 012.39-2.39 2.393 2.393 0 012.39 2.39zm-40.848 4.202a4.207 4.207 0 004.202-4.202 4.207 4.207 0 00-4.202-4.202 4.206 4.206 0 00-4.202 4.202 4.206 4.206 0 004.202 4.202zm0-6.592a2.393 2.393 0 012.39 2.39 2.393 2.393 0 01-2.39 2.39 2.393 2.393 0 01-2.39-2.39 2.393 2.393 0 012.39-2.39zm19.251-27.647a5.338 5.338 0 005.333-5.333 5.339 5.339 0 00-5.333-5.332 5.339 5.339 0 00-5.332 5.332 5.338 5.338 0 005.332 5.333zm0-8.853a3.525 3.525 0 013.521 3.52 3.523 3.523 0 01-3.521 3.52 3.524 3.524 0 01-3.52-3.52 3.524 3.524 0 013.52-3.52z" fill="#fff"/></svg>