<svg width="64" height="60" fill="none" xmlns="http://www.w3.org/2000/svg"><g clip-path="url(#clip0_1_519)" fill="#26437D"><path d="M32 33.839c4.416 0 14.797-4.982 14.797-16.92 0-1.665-.043-3.273-.19-4.793-.24-2.991-.893-5.642-2.52-7.674C42 1.688 38.349 0 32 0c-6.349 0-10 1.688-12.087 4.452-1.626 2.031-2.28 4.68-2.52 7.67-.147 1.52-.19 3.13-.19 4.797 0 11.938 10.381 16.92 14.797 16.92zm4.83-27.64L35.752 8.75c-2.784-.737-4.72-.737-7.504 0L27.17 6.198c3.48-.988 6.18-.987 9.66 0zM19.404 14.33c.17.35.894 1.694 2.016 1.82 1.288.145 3.428-4.278 10.58-4.29 7.152.012 9.291 4.435 10.58 4.29 1.121-.126 1.846-1.47 2.016-1.82.035.857.047 1.725.047 2.59 0 5.834-2.748 9.45-5.053 11.455-2.906 2.527-6.131 3.444-7.59 3.444-1.46 0-4.685-.917-7.59-3.444-2.305-2.005-5.053-5.62-5.053-11.456 0-.864.012-1.732.047-2.589z"/><path d="M59.472 51.19c-.756-4.403-2.31-10.076-5.43-12.092-2.13-1.377-9.562-5.1-12.736-6.689l-.055-.027a1.094 1.094 0 00-1.13.092c-1.662 1.224-3.483 2.049-5.412 2.452a1.02 1.02 0 00-.744.604L32 40.384l-1.964-4.854a1.02 1.02 0 00-.745-.605c-1.929-.402-3.75-1.227-5.412-2.45a1.094 1.094 0 00-1.13-.093c-3.136 1.57-10.658 5.369-12.78 6.71-3.592 2.268-5.162 10.476-5.44 12.099a.916.916 0 00.046.479C4.704 52.01 8 60 32 60s27.297-7.99 27.425-8.33a.917.917 0 00.047-.48zm-12.68-3.601l-2.317 4.792a.231.231 0 01-.243.124.222.222 0 01-.193-.186l-.427-3.17h-1.065a.238.238 0 01-.163-.063.207.207 0 01-.067-.154l.052-4.791c0-.119.103-.214.23-.214h3.61c.074 0 .142.033.185.088a.204.204 0 01.035.19l-1.01 3.08h1.164c.078 0 .15.037.193.098a.204.204 0 01.016.206z"/></g><defs><clipPath id="clip0_1_519"><path fill="#fff" d="M0 0h64v60H0z"/></clipPath></defs></svg>