<svg width="24" height="24" viewBox="0 0 24 24" fill="none" xmlns="http://www.w3.org/2000/svg">
<rect width="24" height="24" rx="12" fill="#FF0000"/>
<path fill-rule="evenodd" clip-rule="evenodd" d="M6.00773 12.0745C6.30002 8.71513 9.26497 5.98438 12.586 5.98438C14.5187 5.98438 15.9178 6.61663 16.7994 7.57618C17.68 8.53448 18.1323 9.91433 17.9898 11.585C17.6795 13.9781 16.7173 14.6298 16.2596 14.7292C16.0119 14.7829 15.8331 14.7147 15.7351 14.6305C15.6476 14.5552 15.5674 14.4207 15.601 14.1824L16.3121 8.84946C16.3623 8.4731 16.0978 8.12731 15.7214 8.07713L15.3807 8.0317C15.0044 7.98151 14.6586 8.24594 14.6084 8.62231L14.5983 8.69839C14.2491 8.35914 13.825 8.0875 13.3298 7.90978C11.209 7.14876 8.96679 8.53926 8.17608 10.6812C7.38439 12.8257 8.19709 15.3261 10.3265 16.0902C11.6736 16.5736 13.0697 16.1889 14.1117 15.2949C14.2355 15.5375 14.4053 15.7538 14.6144 15.9337C15.1543 16.3979 15.8941 16.5673 16.6242 16.4088C18.121 16.0839 19.3479 14.5145 19.6969 11.786C19.6983 11.7746 19.6996 11.7633 19.7006 11.752C19.882 9.68024 19.3303 7.79021 18.0651 6.41326C16.798 5.03434 14.9036 4.26562 12.586 4.26562C8.36038 4.26562 4.66387 7.69112 4.29545 11.9255C3.92227 16.2145 7.09452 19.7344 11.3818 19.7344C12.705 19.7344 13.5522 19.6252 14.7941 19.1002L14.9523 19.0332C15.3021 18.8853 15.4658 18.482 15.3179 18.1322L15.184 17.8156C15.0361 17.4659 14.6328 17.3023 14.283 17.4502L14.1247 17.517C13.1492 17.9295 12.5429 18.0156 11.3818 18.0156C8.12247 18.0156 5.7202 15.3792 6.00773 12.0745ZM9.78846 11.2764C10.3358 9.79382 11.7265 9.16053 12.7492 9.52752C13.7633 9.89141 14.4142 11.2437 13.8678 12.7236C13.3205 14.2062 11.9297 14.8394 10.907 14.4725C9.89298 14.1086 9.24211 12.7563 9.78846 11.2764Z" fill="white"/>
</svg>
