<svg width="24" height="24" viewBox="0 0 24 24" fill="none" xmlns="http://www.w3.org/2000/svg">
<g clip-path="url(#clip0_2_230)">
<path d="M6.10352e-05 24L1.69633 17.8403C0.647625 16.0323 0.0974822 13.9848 0.103213 11.8916C0.103213 5.3327 5.46711 0 12.0516 0C15.2493 0 18.2522 1.23764 20.5043 3.48479C22.7622 5.73194 24.0058 8.72054 24 11.8973C24 18.4563 18.6362 23.789 12.0459 23.789H12.0402C10.0402 23.789 8.07455 23.2871 6.3267 22.3403L6.10352e-05 24Z" fill="#35BD49"/>
<path fill-rule="evenodd" clip-rule="evenodd" d="M9.06588 6.91818C8.84238 6.42198 8.60743 6.41058 8.39539 6.40487C8.22347 6.39917 8.0229 6.39917 7.82233 6.39917C7.62176 6.39917 7.30084 6.47331 7.02577 6.76989C6.7507 7.06647 5.98279 7.7851 5.98279 9.25088C5.98279 10.711 7.05442 12.1254 7.20342 12.325C7.35241 12.5246 9.27218 15.6216 12.3037 16.8136C14.8252 17.806 15.3409 17.6064 15.8854 17.5551C16.4298 17.5037 17.6504 16.8364 17.9025 16.1406C18.149 15.4448 18.149 14.8516 18.0745 14.7262C18 14.6007 17.7994 14.5265 17.5014 14.3783C17.2034 14.23 15.7364 13.5113 15.4613 13.4087C15.1862 13.3117 14.9856 13.2604 14.7908 13.557C14.5902 13.8535 14.0172 14.5208 13.8452 14.7205C13.6733 14.9201 13.4957 14.9429 13.1977 14.7946C12.8997 14.6463 11.9369 14.3326 10.7965 13.3174C9.90829 12.5303 9.30657 11.5551 9.13465 11.2585C8.96273 10.9619 9.11746 10.8022 9.26645 10.6539C9.39826 10.5227 9.56445 10.306 9.71344 10.1349C9.86244 9.96381 9.91402 9.83833 10.0114 9.63871C10.1089 9.43909 10.063 9.26799 9.98852 9.1197C9.91402 8.97712 9.32949 7.50563 9.06588 6.91818Z" fill="white"/>
</g>
<defs>
<clipPath id="clip0_2_230">
<rect width="24" height="24" fill="white"/>
</clipPath>
</defs>
</svg>
