<svg width="64" height="64" viewBox="0 0 64 64" fill="none" xmlns="http://www.w3.org/2000/svg">
<g clip-path="url(#clip0_150_2082)">
<path d="M56.3582 15.2056H43.925V8.24257C43.925 5.08177 41.3545 2.51123 38.1935 2.51123H25.7757C22.6149 2.51123 20.0444 5.08177 20.0444 8.24257V15.2056H7.64179C3.42167 15.2056 0 18.6271 0 22.8474V57.8471C0 62.0674 3.42153 65.4889 7.64179 65.4889H56.3582C60.5783 65.4889 63.9999 62.0674 63.9999 57.8471V22.8474C64 18.6262 60.5783 15.2056 56.3582 15.2056ZM23.8653 8.24257C23.8653 7.18902 24.7222 6.33213 25.7757 6.33213H38.1935C39.2472 6.33213 40.1041 7.18902 40.1041 8.24257V15.2056H23.8653V8.24257Z" fill="#627590"/>
<path d="M48.69 43.895C48.69 44.9917 48.55 45.9833 48.27 46.87C47.99 47.7567 47.57 48.5267 47.01 49.18C46.45 49.8333 45.75 50.335 44.91 50.685C44.07 51.035 43.09 51.21 41.97 51.21C39.7533 51.21 38.085 50.5567 36.965 49.25C35.8683 47.92 35.32 46.1467 35.32 43.93C35.32 42.81 35.46 41.8067 35.74 40.92C36.02 40.01 36.44 39.2283 37 38.575C37.56 37.9217 38.26 37.42 39.1 37.07C39.94 36.72 40.92 36.545 42.04 36.545C44.3033 36.545 45.9717 37.21 47.045 38.54C48.1417 39.87 48.69 41.655 48.69 43.895ZM44.63 43.93C44.63 42.74 44.4317 41.7483 44.035 40.955C43.6617 40.1617 42.9733 39.765 41.97 39.765C41.0133 39.765 40.3367 40.1617 39.94 40.955C39.5667 41.725 39.38 42.705 39.38 43.895C39.38 44.4783 39.4267 45.0267 39.52 45.54C39.6133 46.03 39.765 46.4617 39.975 46.835C40.185 47.2083 40.4533 47.5 40.78 47.71C41.13 47.92 41.55 48.025 42.04 48.025C42.9967 48.025 43.6617 47.64 44.035 46.87C44.4317 46.0767 44.63 45.0967 44.63 43.93ZM30.63 34.55C30.63 35.6467 30.49 36.6383 30.21 37.525C29.93 38.4117 29.51 39.1817 28.95 39.835C28.39 40.4883 27.69 40.99 26.85 41.34C26.01 41.69 25.03 41.865 23.91 41.865C21.6933 41.865 20.025 41.2117 18.905 39.905C17.8083 38.575 17.26 36.8017 17.26 34.585C17.26 33.465 17.4 32.4617 17.68 31.575C17.96 30.665 18.38 29.8833 18.94 29.23C19.5 28.5767 20.2 28.075 21.04 27.725C21.88 27.375 22.86 27.2 23.98 27.2C26.2433 27.2 27.9117 27.865 28.985 29.195C30.0817 30.525 30.63 32.31 30.63 34.55ZM26.57 34.585C26.57 33.395 26.3717 32.4033 25.975 31.61C25.6017 30.8167 24.9133 30.42 23.91 30.42C22.9533 30.42 22.2767 30.8167 21.88 31.61C21.5067 32.38 21.32 33.36 21.32 34.55C21.32 35.1333 21.3667 35.6817 21.46 36.195C21.5533 36.685 21.705 37.1167 21.915 37.49C22.125 37.8633 22.3933 38.155 22.72 38.365C23.07 38.575 23.49 38.68 23.98 38.68C24.9367 38.68 25.6017 38.295 25.975 37.525C26.3717 36.7317 26.57 35.7517 26.57 34.585ZM27.48 51.49C27.3633 51.7 27.2117 51.8517 27.025 51.945C26.8617 52.0617 26.6167 52.12 26.29 52.12H24.505C24.2483 52.12 24.085 52.05 24.015 51.91C23.9683 51.7933 24.0033 51.6417 24.12 51.455L38.61 26.815C38.7267 26.6283 38.8317 26.5 38.925 26.43C39.0183 26.3367 39.1933 26.29 39.45 26.29H41.515C41.725 26.29 41.865 26.3483 41.935 26.465C42.0283 26.5817 42.005 26.7567 41.865 26.99L27.48 51.49Z" fill="#34F36A"/>
</g>
<defs>
<clipPath id="clip0_150_2082">
<rect width="64" height="64" fill="white"/>
</clipPath>
</defs>
</svg>
