<svg width="64" height="65" viewBox="0 0 64 65" fill="none" xmlns="http://www.w3.org/2000/svg">
<path fill-rule="evenodd" clip-rule="evenodd" d="M2 30.6612V35.3383C2.29814 36.0629 2.28034 37.4027 2.42076 38.2026C2.90308 40.9414 3.78886 43.6397 4.97736 46.1154C7.94251 52.2917 12.7179 56.9203 18.8542 59.9935C24.3119 62.7268 29.3686 62.8138 29.7395 63H34.26C34.4431 62.9079 36.6034 62.6762 37.0847 62.5962C46.6268 61.0075 54.812 54.7396 58.9677 46.2272C59.7247 44.6764 60.4182 42.8868 60.8944 41.1797C61.4439 39.2095 61.8754 35.6414 62 35.3383V30.6612C61.4103 29.2288 61.8163 20.3425 53.2185 11.733C50.9458 9.45714 48.5296 7.69385 45.0349 5.95029C42.7362 4.80377 39.7441 3.84648 37.0852 3.40376C36.6039 3.32382 34.4437 3.09209 34.2605 3H29.74C29.2058 3.26867 19.2628 3.24135 10.782 11.7335C2.1913 20.3359 2.57288 29.2713 2.00051 30.6617L2 30.6612ZM4.24981 31.7571C4.73468 31.6352 6.28238 29.6371 8.93717 30.7366C10.7179 31.4738 11.07 33.2871 11.0659 35.5534C10.1679 34.9857 8.81456 32.3486 6.84457 33.3433C5.45154 34.0471 4.84202 36.4514 5.27499 38.1378C5.30603 38.1485 5.35996 38.1191 5.37217 38.1505L5.77309 38.0822C6.15721 37.9132 8.44162 35.3358 10.1175 37.6405C9.03994 38.2927 6.79878 38.4778 6.76826 42.2797C6.74384 45.3372 7.59196 46.1139 8.95752 48.1266C13.2806 54.4977 20.5118 59.7563 28.6797 60.4889C36.5632 61.1962 37.7497 55.8912 38.8339 54.5241C39.1829 54.7118 38.9112 54.4517 39.1987 54.8504C39.3015 54.9931 39.4068 55.2719 39.4587 55.4181C39.6123 55.8517 39.7171 56.2818 39.7828 56.7301C39.9476 57.8619 39.8347 58.5166 39.566 59.4542C40.839 59.4785 43.0201 58.1473 43.6993 56.7286C44.5266 55.0007 44.1618 51.7746 44.6675 50.7273C45.2989 50.9696 45.6861 52.0215 45.943 52.6196C46.3221 53.5025 46.4742 54.3004 46.7744 55.0624L47.0583 54.438C47.5706 52.6651 47.2638 51.1149 48.6299 49.7685C50.1323 50.1864 50.5027 51.8677 51.3437 49.5808C51.5019 49.1502 51.624 48.7975 51.7736 48.3498C52.0555 47.5068 52.2768 46.7833 52.4849 45.9236C53.2516 42.7543 52.3592 43.4095 51.3559 41.4226C50.7962 40.3145 50.2722 37.0505 49.8947 36.5845C49.4872 36.0816 48.781 36.1342 48.1048 35.2189C47.6988 34.6699 47.1814 33.868 47.2043 33.0761L48.1491 33.4096C48.118 31.837 47.2607 32.7053 47.7013 29.1524L44.6787 27.8551C42.7021 27.0825 42.9214 26.9292 41.6169 26.3235C42.029 29.1853 39.8713 30.0854 39.9598 32.0055L40.7764 32.0384C41.5996 35.1511 42.4243 33.9565 43.1254 35.6945C43.6067 36.8871 43.2053 39.889 42.3348 40.615C40.8583 40.0332 42.725 40.0909 38.4706 38.831C36.9392 38.3772 35.5777 37.7199 35.4302 36.1489C36.0728 35.5954 36.5663 35.7224 37.0059 34.9887C36.9336 34.3876 36.1598 33.3109 35.8565 32.4735C35.476 31.4252 35.3381 30.4188 35.45 29.1812C35.534 28.2553 35.9791 27.1159 36.4559 26.488C37.3549 25.3035 37.9425 25.6754 38.6482 25.0237C36.8593 24.3143 35.3004 23.8802 34.7393 21.9833C34.0636 19.7009 35.5304 17.7717 36.7983 17.0765C36.3409 16.6535 33.2384 15.3026 32.5719 14.2704C34.1877 12.755 36.957 14.7222 38.0015 15.4827C39.1509 14.8305 39.2318 13.5418 42.3872 13.5792C44.3968 10.0188 45.7319 11.3904 48.6299 11.272C47.1727 8.64203 39.2277 5.87136 35.2353 5.4003C24.7789 4.16726 14.5317 9.07159 9.07708 17.329C6.61003 21.064 4.25184 26.2314 4.25083 31.7571H4.24981ZM51.5452 16.7648C48.0483 16.063 49.2501 13.4937 48.5006 12.6554C47.3971 13.1704 48.0061 14.913 46.8603 15.9573C45.6311 17.078 44.3994 15.6987 43.3778 15.4463C43.1224 16.9895 42.3282 20.049 43.0496 21.6818C43.2175 22.0608 43.1188 21.8796 43.334 22.1093C43.9496 21.274 43.7833 18.0211 47.1676 18.0211C50.7581 18.0211 51.043 21.9186 51.043 24.5466C51.043 26.2102 50.23 27.5272 50.1409 28.6904L51.8642 30.5463C52.0768 29.881 52.5383 28.9171 52.9468 28.4744C54.4213 26.874 53.4983 27.4802 54.3694 26.5725C56.9957 23.8367 56.1038 24.4666 55.2948 22.2262C56.0153 21.487 57.914 21.4025 54.6533 16.7739C53.9303 15.7478 51.4856 12.7793 50.292 12.3786C50.0173 14.4485 51.0206 15.1589 51.5457 16.7648H51.5452ZM52.9977 31.5218C53.0165 32.5515 53.3595 32.7068 53.8138 33.5189C54.1384 34.0987 54.4793 34.8374 54.8344 35.3085C55.2027 34.9548 55.0557 34.9012 55.5009 34.5703C56.1725 35.0788 56.8685 35.8848 56.5357 37.01C56.173 38.2385 56.8573 38.5107 56.8573 40.9556C56.8573 43.7632 55.2328 43.58 54.6533 45.0797C54.1928 46.2712 53.5334 48.8203 53.2806 50.1034C53.8006 49.8692 53.6525 49.8813 54.2239 49.2989C55.0338 48.4732 55.7456 47.3672 56.3119 46.4018C58.0565 43.4287 59.2236 39.6021 59.5304 36.1514C59.8413 32.6567 59.9741 32.2044 58.1257 31.0867C56.6818 32.4083 54.9097 32.5332 52.9972 31.5218H52.9977ZM45.0644 23.5523C45.0633 25.5135 46.9239 27.4771 48.6675 27.6805C50.5291 25.7847 49.2216 21.7845 47.767 20.9633C45.9456 19.9352 45.0654 22.0208 45.0644 23.5518V23.5523ZM38.7535 19.0771C38.7515 21.529 40.2987 23.5397 42.3877 23.8726C41.3813 22.2935 41.0695 22.3137 41.0695 19.9058C41.0695 16.8103 42.0906 15.553 42.201 14.3114C41.1305 15.0794 42.0127 15.0091 40.2122 16.3044C39.3228 16.9439 38.755 17.6649 38.7535 19.0771ZM54.1638 42.2301C55.8397 40.699 53.1361 34.502 52.1674 33.534C51.5289 34.5045 52.0127 37.1517 52.2661 38.3782C52.4971 39.4953 53.0252 41.8906 54.1638 42.2301ZM55.8026 27.0329C56.5993 27.4938 57.3203 27.5935 57.9939 28.2022C58.6853 28.8275 58.8568 29.4155 59.5009 30.0398C59.5365 29.9726 59.5767 29.9634 59.6006 29.6644L59.4093 28.3003C59.2821 27.6486 59.1656 27.088 59.041 26.5082C58.7998 25.388 58.4498 24.1297 57.8341 23.3763C57.534 23.9758 57.477 24.8456 57.1107 25.4806C56.6721 26.2411 56.3332 26.5634 55.8021 27.0334L55.8026 27.0329ZM38.1674 33.1571C38.6843 32.0409 37.217 30.2063 38.2218 28.7562L39.5207 29.2394C39.7013 28.0084 39.8199 27.34 39.1274 26.4343C36.0544 27.3992 36.3399 32.4047 38.1674 33.1571ZM37.0852 10.929C36.726 11.609 36.0677 12.3568 36.1277 13.1031C36.2671 14.8386 40.1908 14.6048 39.1147 12.3462C38.6395 11.3495 38.4767 10.8612 37.0852 10.9285V10.929ZM36.3968 20.9001C36.4004 22.6472 38.26 23.8397 39.596 23.8241C37.5452 22.0613 37.4068 20.7513 37.6098 18.2878C36.8776 18.5428 36.3948 19.8775 36.3963 20.9001H36.3968ZM45.8855 14.8437C46.523 14.4353 46.7779 13.3733 46.7744 12.5066C43.9929 11.7254 43.13 15.4093 45.8855 14.8437ZM50.4279 34.7671C50.7672 32.5596 50.8405 32.2873 49.9562 30.8914C49.6952 30.479 49.6428 30.2984 49.0277 30.1335C48.81 31.4591 48.9982 31.8416 49.4922 32.8561C50.028 33.956 49.2999 34.5197 50.4279 34.7671ZM54.4737 30.5433C55.6169 31.0245 56.6813 30.5625 57.3493 29.8501C56.7347 28.4713 53.9832 28.6373 54.4737 30.5433Z" fill="#34F36A"/>
<path d="M16.4275 44.2744V18.5704H23.1955C26.3395 18.5704 28.6675 19.2064 30.1795 20.4784C31.7155 21.7504 32.4835 23.5984 32.4835 26.0224C32.4835 27.6544 32.1115 29.0584 31.3675 30.2344C30.6235 31.3864 29.5195 32.2744 28.0555 32.8984C26.6155 33.5224 24.8275 33.8344 22.6915 33.8344H19.6675V44.2744H16.4275ZM13.2955 39.3784V37.0384H25.6075V39.3784H13.2955ZM13.2955 33.8344V31.0984H21.5395V33.8344H13.2955ZM22.2235 31.0984C23.6875 31.0984 24.9235 30.9424 25.9315 30.6304C26.9635 30.3184 27.7555 29.8024 28.3075 29.0824C28.8595 28.3624 29.1355 27.3784 29.1355 26.1304C29.1355 24.4984 28.6315 23.2864 27.6235 22.4944C26.6155 21.7024 25.0435 21.3064 22.9075 21.3064H19.6675V31.0984H22.2235Z" fill="#34F36A"/>
<path fill-rule="evenodd" clip-rule="evenodd" d="M32 64.5C14.3269 64.5 0 50.1731 0 32.5C0 14.8269 14.3269 0.5 32 0.5C49.6731 0.5 64 14.8269 64 32.5C64 50.1731 49.6731 64.5 32 64.5ZM32 3.59677C16.0372 3.59677 3.09677 16.5372 3.09677 32.5C3.09677 48.4628 16.0372 61.4032 32 61.4032C47.9628 61.4032 60.9032 48.4628 60.9032 32.5C60.9032 16.5372 47.9628 3.59677 32 3.59677Z" fill="#627590"/>
<rect x="2.5" y="3" width="59" height="59" rx="29.5" stroke="#627590" stroke-width="5"/>
</svg>
