<svg width="64" height="65" viewBox="0 0 64 65" fill="none" xmlns="http://www.w3.org/2000/svg">
<rect x="2.5" y="3.0061" width="59" height="58.9939" rx="29.4969" stroke="#627590" stroke-width="5"/>
<path fill-rule="evenodd" clip-rule="evenodd" d="M4.19434 40.037C4.19434 40.6766 4.38155 41.3629 4.84957 41.7373C4.97438 41.8309 5.16159 41.9713 5.302 42.0181C5.3956 41.5969 5.97283 40.9417 6.23805 40.5986C6.51886 40.2398 7.11169 39.7406 7.51732 39.4754L8.25055 39.0542C11.3551 37.5411 14.2101 38.8514 14.5533 38.8514C14.6937 38.8514 16.6906 37.7439 17.0962 37.5411C18.7967 36.6831 18.9839 35.9344 19.764 34.39C19.9668 33.9844 21.4957 30.7086 21.6985 30.4746V39.9278C21.4177 40.0682 18.9839 40.661 18.4535 40.7858C18.2819 40.8325 18.1103 40.8326 18.0323 40.9573C18.5315 41.0821 31.6674 47.7587 31.8546 47.7587C31.917 47.7587 33.3835 46.9943 33.5707 46.9007C34.148 46.6043 34.7096 46.3235 35.318 46.0271L43.9921 41.6437C44.2885 41.4877 44.5381 41.3629 44.8501 41.2225C45.0841 41.0977 45.5366 40.9573 45.6926 40.739C45.443 40.739 42.198 40.0214 42.0108 39.9278V30.4746C42.2448 30.7398 43.1028 32.6585 43.3212 33.0953L44.2885 35.0764C44.5069 35.5132 44.6941 35.95 44.9905 36.3399C45.0529 36.4179 45.1309 36.5271 45.1933 36.6051C45.287 36.6987 45.365 36.7455 45.4742 36.8391C45.6614 37.0107 45.833 37.1199 46.0358 37.2603C46.613 37.6971 47.2683 37.9935 47.9235 38.3211C49.702 39.2102 48.8439 39.023 50.4352 38.633C51.0593 38.477 51.8705 38.4614 52.5257 38.4614C54.117 38.4614 55.9423 39.179 56.9252 40.0994C56.9876 40.1618 57.0188 40.193 57.0812 40.2554C57.362 40.4894 57.6116 40.7546 57.83 41.0509C57.9236 41.1757 58.0016 41.2693 58.0796 41.3941L58.5633 42.1585C59.1561 41.8777 59.2341 41.6749 59.4993 41.0821C59.6241 40.8169 59.6241 40.4582 59.6241 40.1462C59.6241 38.789 58.2668 37.6503 57.2372 37.0263C55.9267 36.2307 54.5695 35.4976 53.2746 34.6552C53.103 34.5304 52.947 34.4524 52.7754 34.3432C52.6193 34.234 52.4633 34.1404 52.3073 34.0468L50.8409 33.1109C50.6692 33.0017 50.5288 32.9237 50.3728 32.8145C50.1856 32.6897 50.1388 32.5181 50.0608 32.2997L46.9718 23.5329C46.8938 23.3145 46.847 23.1273 46.769 22.9245C46.6286 22.5657 46.4102 22.1913 46.2074 21.9105C45.7706 21.271 45.1777 20.8342 44.5381 20.413C43.8829 19.9762 41.886 19.321 41.1371 19.0714C38.2354 18.1043 34.772 17.0903 31.683 17.0903C29.5925 17.0903 25.8483 17.9795 23.8358 18.6503C23.0246 18.9155 22.2133 19.1182 21.4489 19.4302L20.31 19.8358C19.8888 19.9762 19.5768 20.1166 19.2179 20.335C18.6407 20.6782 17.9387 21.271 17.5799 21.8637C17.1274 22.6125 16.909 23.2365 16.6282 24.0788C15.973 26.0288 15.2241 27.9319 14.5689 29.8974L13.7421 32.2373C13.586 32.7365 13.4456 32.6897 12.9308 33.0017C12.6032 33.2045 12.2912 33.4073 11.9636 33.61C11.8075 33.7036 11.6671 33.8128 11.4955 33.9064C11.3395 34 11.1679 34.1092 10.9963 34.2184L10.0447 34.8112C8.82779 35.5756 7.2053 36.4647 6.11324 37.2135C5.77002 37.4475 5.48921 37.6971 5.20839 37.9779L4.89637 38.3523C4.77157 38.5082 4.66236 38.6486 4.56876 38.8358C4.39715 39.1634 4.22554 39.569 4.22554 40.0838L4.19434 40.037Z" fill="#34F36A"/>
<path fill-rule="evenodd" clip-rule="evenodd" d="M23.5392 62.5002C24.9589 62.5002 25.1149 62.235 26.2694 61.767L40.8249 55.4493C42.1666 54.8565 44.5067 53.9049 45.6924 53.3433C45.8796 53.2497 46.0356 53.1874 46.2384 53.1094C46.4256 53.0314 46.5817 52.9534 46.7689 52.8754C46.9717 52.7974 47.1121 52.735 47.3149 52.6414C47.5177 52.5478 47.6581 52.4854 47.8453 52.4074C49.499 51.7366 51.5583 50.8006 53.2432 50.0675C53.6176 49.9115 53.9765 49.7399 54.3509 49.5839C55.0685 49.2875 55.6145 48.8039 56.0358 48.18C56.8626 46.9476 56.9562 45.2629 56.3946 43.8745C56.2074 43.391 56.0982 43.1726 55.8174 42.7826L55.2869 42.1586C54.3665 41.441 53.6332 41.0667 52.2604 41.0667C50.7159 41.0667 49.6082 41.7998 48.2977 42.455C48.0793 42.5642 47.9077 42.6422 47.7049 42.7514C47.4865 42.8606 47.3461 42.9542 47.1277 43.0634L23.352 55.0593C22.5408 55.4649 21.7763 55.7612 21.1367 56.4008C20.9651 56.5724 20.8559 56.666 20.7155 56.8844C20.0134 57.9452 19.8262 59.1775 20.3098 60.3787C20.3722 60.519 20.3878 60.5502 20.4502 60.6594C20.5126 60.7686 20.5594 60.8622 20.6218 60.9558C21.2459 61.9074 22.3847 62.5002 23.5704 62.5002H23.5392Z" fill="#34F36A"/>
<path fill-rule="evenodd" clip-rule="evenodd" d="M24.3042 7.77747C24.3042 9.08782 24.4914 10.1642 25.0218 11.2093C25.3182 11.7865 25.6614 12.3481 26.0827 12.8473C27.3931 14.3916 29.4993 15.5616 31.5898 15.5616C32.9002 15.5616 33.9767 15.3744 35.022 14.844C35.412 14.6568 35.8176 14.4228 36.1452 14.1732C36.3168 14.0484 36.4884 13.9236 36.66 13.7832L37.1593 13.3308C38.4073 12.0829 39.3746 10.1018 39.3746 8.27665C39.3746 6.96631 39.1874 5.88995 38.6569 4.84479C38.5477 4.6264 38.4697 4.43921 38.3449 4.26762C38.2201 4.08043 38.1265 3.90883 37.9861 3.72164C37.5181 3.09767 37.2529 2.80128 36.6756 2.2865C36.2544 1.91212 35.5368 1.47533 35.0064 1.21014C32.9782 0.180587 29.9517 0.258584 28.064 1.52213C27.6896 1.77172 27.3775 1.95891 27.0031 2.2553L26.0827 3.17566C25.0998 4.28322 24.2886 6.18634 24.2886 7.76187L24.3042 7.77747Z" fill="#34F36A"/>
<path fill-rule="evenodd" clip-rule="evenodd" d="M6.93994 45.7306C6.93994 46.6042 7.08035 47.2438 7.48597 47.9769C8.0476 48.9909 8.67163 49.3029 9.63889 49.7085L12.3846 50.894C12.9931 51.1592 13.5859 51.4244 14.1787 51.674C14.8652 51.9548 19.5298 54.0295 19.6546 54.0295L28.5627 49.4121C28.7031 49.3341 28.7811 49.3497 28.8123 49.1937C28.5939 49.1469 27.9699 48.8037 27.7359 48.6789L17.2053 43.3751C17.0337 43.2971 16.8621 43.2035 16.6905 43.1255C14.3815 41.9712 12.369 40.458 9.59208 41.5032C7.89159 42.1428 6.93994 43.9679 6.93994 45.7306Z" fill="#34F36A"/>
<path fill-rule="evenodd" clip-rule="evenodd" d="M35.2554 60.7065V60.7845C35.4426 60.8001 37.2055 61.5801 37.4551 61.6737C38.3443 62.0169 38.828 62.3757 40.0136 62.3757C42.0417 62.3757 43.6486 60.9405 43.6486 58.9592C43.6486 58.3507 43.633 57.8515 43.3522 57.3367L39.3116 59.0372C38.9528 59.1932 35.4426 60.7064 35.2554 60.722V60.7065Z" fill="#34F36A"/>
</svg>
