<svg width="64" height="64" viewBox="0 0 64 64" fill="none" xmlns="http://www.w3.org/2000/svg">
<rect x="2.5" y="2.5" width="59" height="59" rx="29.5" fill="#627590" stroke="#627590" stroke-width="5"/>
<path d="M30 64L30 52C30 50.8954 30.8954 50 32 50C33.1046 50 34 50.8954 34 52L34 64L30 64Z" fill="#4B3950"/>
<path d="M32 14C30.8954 14 30 13.1046 30 12L30 0L34 -1.74846e-07L34 12C34 13.1046 33.1046 14 32 14Z" fill="#4B3950"/>
<rect x="21" y="24" width="22" height="17" fill="#34F36A"/>
<path d="M31.8516 21C19.8687 21 10.6484 31.5566 10.6484 31.5566L9.79492 32.5L10.6484 33.4434C10.6484 33.4434 19.0544 43.0286 30.2344 43.9102C30.7678 43.9775 31.3013 44 31.8516 44C32.4019 44 32.9353 43.9775 33.4688 43.9102C44.6487 43.0286 53.0547 33.4434 53.0547 33.4434L53.9082 32.5L53.0547 31.5566C53.0547 31.5566 43.8345 21 31.8516 21ZM31.8516 23.875C35.0186 23.875 37.9385 24.7397 40.4766 25.8965C41.3918 27.4126 41.9141 29.1589 41.9141 31.0625C41.9141 36.2566 38.0171 40.5242 32.9746 41.0801C32.9465 41.0857 32.9128 41.0745 32.8848 41.0801C32.5422 41.0969 32.1997 41.125 31.8516 41.125C31.4697 41.125 31.0991 41.1025 30.7285 41.0801C25.686 40.5242 21.7891 36.2566 21.7891 31.0625C21.7891 29.187 22.2944 27.4407 23.1816 25.9414H23.1367C25.6973 24.7622 28.6509 23.875 31.8516 23.875ZM31.8516 26.75C29.4707 26.75 27.5391 28.6816 27.5391 31.0625C27.5391 33.4434 29.4707 35.375 31.8516 35.375C34.2324 35.375 36.1641 33.4434 36.1641 31.0625C36.1641 28.6816 34.2324 26.75 31.8516 26.75ZM19.2734 28.0977C19.0488 29.0635 18.9141 30.0349 18.9141 31.0625C18.9141 33.5837 19.6328 35.9421 20.8906 37.9355C17.2688 35.8411 14.7532 33.3423 13.9277 32.5C14.6184 31.7925 16.5444 29.917 19.2734 28.0977ZM44.4297 28.0977C47.1587 29.917 49.0847 31.7925 49.7754 32.5C48.95 33.3423 46.4343 35.8411 42.8125 37.9355C44.0703 35.9421 44.7891 33.5837 44.7891 31.0625C44.7891 30.0349 44.6543 29.0522 44.4297 28.0977Z" fill="#4B3950"/>
</svg>
